<svg width="100" height="10" viewBox="0 0 50 50" fill="none" xmlns="http://www.w3.org/2000/svg">
<path d="M20.2965 48.4384C24.3995 48.4373 28.3909 47.1029 31.6696 44.6361C34.9482 42.1694 37.3364 38.704 38.4743 34.762C39.6122 30.82 39.4383 26.6149 37.9786 22.7804C36.519 18.9459 33.8527 15.6896 30.3816 13.5021C26.9104 11.3146 22.8224 10.3144 18.7333 10.6522C14.6443 10.99 10.7758 12.6475 7.7107 15.3749C4.64557 18.1024 2.54984 21.7521 1.73924 25.7742C0.928651 29.7963 1.44711 33.9729 3.2165 37.6747C3.6234 38.5263 3.76534 39.4868 3.52404 40.3952L2.7481 43.2978C2.6087 43.819 2.60882 44.3676 2.74847 44.8887C2.88812 45.4097 3.16237 45.8849 3.54371 46.2665C3.92504 46.6481 4.40004 46.9226 4.92102 47.0626C5.442 47.2026 5.99064 47.203 6.51186 47.064L9.41452 46.2857C10.329 46.0606 11.2938 46.1697 12.135 46.5932C14.6071 47.776 17.375 48.4384 20.2989 48.4384H20.2965Z" stroke="white" stroke-width="2"/>
<path d="M39.2214 30.6999L39.6898 30.4941C40.5461 30.1037 41.5066 29.9571 42.4174 30.2007L43.5434 30.5012C44.0645 30.6406 44.6132 30.6404 45.1342 30.5008C45.6553 30.3611 46.1305 30.0869 46.5121 29.7056C46.8936 29.3242 47.1682 28.8492 47.3082 28.3282C47.4481 27.8073 47.4486 27.2586 47.3095 26.7374L47.0067 25.6114C46.7631 24.7006 46.9121 23.7401 47.3024 22.8838C48.1105 21.0328 48.546 19.0409 48.5842 17.0216C48.6224 15.0024 48.2625 12.9954 47.5251 11.1152C46.7877 9.23502 45.6871 7.51851 44.2863 6.06367C42.8855 4.60883 41.2119 3.44414 39.3609 2.63611C37.51 1.82807 35.518 1.39252 33.4988 1.35431C31.4795 1.31611 29.4725 1.676 27.5924 2.41344C25.7122 3.15087 23.9957 4.25141 22.5408 5.65223C21.086 7.05304 19.9213 8.72669 19.1133 10.5776" stroke="white" stroke-width="2"/>
<path d="M12.0591 29.5127H12.0827M20.3176 29.5127H20.3389M28.5761 29.5127H28.5974" stroke="white" stroke-width="4" stroke-linecap="round" stroke-linejoin="round"/>
</svg>
