<svg width="93" height="76" viewBox="0 0 93 76" fill="none" xmlns="http://www.w3.org/2000/svg">
<path d="M83.0725 71.6708H49.7305V75.2831H83.0725V71.6708Z" fill="#803A2C"/>
<path d="M53.3036 72.4451C53.9919 72.4451 54.429 72.8451 54.429 73.4441C54.429 74.0431 53.9919 74.444 53.3036 74.444C52.6154 74.444 52.1782 74.044 52.1782 73.4441C52.1782 72.8442 52.6154 72.4451 53.3036 72.4451ZM53.3036 74.2522C53.8498 74.2522 54.1981 73.9326 54.1981 73.4441C54.1981 72.9556 53.8498 72.636 53.3036 72.636C52.7574 72.636 52.4064 72.9556 52.4064 73.4441C52.4064 73.9326 52.7602 74.2522 53.3036 74.2522Z" fill="white"/>
<path d="M56.4902 72.4725H56.7184L58.0811 74.0385H58.1178V72.4725H58.3432V74.4156H58.1141L56.7541 72.8524H56.7175V74.4156H56.4893V72.4725H56.4902Z" fill="white"/>
<path d="M62.8163 72.4725H63.8748C64.4018 72.4725 64.6492 72.6305 64.6492 72.9802C64.6492 73.1775 64.5466 73.3217 64.334 73.3939V73.4158C64.5906 73.477 64.7216 73.6358 64.7216 73.8796C64.7216 74.2458 64.4788 74.4156 63.95 74.4156H62.8154V72.4725H62.8163ZM63.0445 72.6643V73.3254H63.8693C64.2533 73.3254 64.4183 73.2249 64.4183 72.9976C64.4183 72.7702 64.2533 72.6643 63.8693 72.6643H63.0445ZM63.0445 73.5025V74.2248H63.9445C64.3257 74.2248 64.4934 74.1134 64.4934 73.8632C64.4934 73.613 64.3257 73.5025 63.9445 73.5025H63.0445Z" fill="white"/>
<path d="M67.7777 72.4451C68.466 72.4451 68.9031 72.8451 68.9031 73.4441C68.9031 74.0431 68.466 74.444 67.7777 74.444C67.0895 74.444 66.6523 74.044 66.6523 73.4441C66.6523 72.8442 67.0895 72.4451 67.7777 72.4451ZM67.7777 74.2522C68.3239 74.2522 68.6722 73.9326 68.6722 73.4441C68.6722 72.9556 68.3239 72.636 67.7777 72.636C67.2315 72.636 66.8805 72.9556 66.8805 73.4441C66.8805 73.9326 67.2343 74.2522 67.7777 74.2522Z" fill="white"/>
<path d="M71.5136 72.4725H71.9984L72.8736 74.4156H72.6307L72.4108 73.9162H71.1039L70.8812 74.4156H70.6411L71.5136 72.4725ZM72.3301 73.7335L71.8646 72.6761H71.6501L71.1818 73.7335H72.3301Z" fill="white"/>
<path d="M74.8447 72.4725H75.9234C76.4503 72.4725 76.695 72.6698 76.695 73.0587C76.695 73.4249 76.4916 73.6249 76.1103 73.6249H76.0434C76.3532 73.8221 76.4476 74.2138 76.7069 74.2138H76.9269V74.4166H76.6565C76.1882 74.4166 76.1745 73.6861 75.5669 73.6395H75.0738V74.4166H74.8456V72.4734L74.8447 72.4725ZM75.0729 72.6643V73.4559H75.917C76.3046 73.4559 76.4659 73.3309 76.4659 73.0587C76.4659 72.7866 76.3046 72.6643 75.917 72.6643H75.0729Z" fill="white"/>
<path d="M78.9033 72.4725H79.9059C80.5273 72.4725 80.9232 72.8496 80.9232 73.4441C80.9232 74.0385 80.5282 74.4156 79.9059 74.4156H78.9033V72.4725ZM79.1315 72.6643V74.2248H79.9059C80.3852 74.2248 80.6913 73.9271 80.6913 73.4441C80.6913 72.961 80.3843 72.6643 79.9059 72.6643H79.1315Z" fill="white"/>
<path d="M60.5866 60.6393C62.0667 60.0138 63.2443 59.1089 64.1186 57.9237C64.2524 57.742 64.3752 57.553 64.4879 57.3566V66.319L60.5857 60.6384L60.5866 60.6393ZM58.871 53.8347C58.871 54.6839 58.5686 55.3596 57.9629 55.8628C57.3571 56.365 56.4938 56.617 55.373 56.617H51.0666V50.9858H55.3391C56.4379 50.9858 57.3012 51.215 57.9298 51.6725C58.5567 52.1308 58.872 52.8285 58.872 53.7672V53.8347H58.871ZM70.9149 63.2874V59.5664H82.2192V54.4374H70.9149V50.8844H83.1219V45.3536H80.993C81.5062 44.6743 81.9324 43.8963 82.2696 43.0151C82.7966 41.6409 83.0605 40.0036 83.0605 38.1043V25.0978H76.3998V38.3052C76.3998 39.9589 76.0103 41.177 75.2314 41.9586C74.4524 42.7412 73.4067 43.132 72.0935 43.132C70.7802 43.132 69.7336 42.7248 68.9547 41.9084C68.1757 41.093 67.7871 39.8356 67.7871 38.1372V25.0978H61.1255V38.2724C61.1255 40.105 61.3784 41.6975 61.8825 43.0489C62.3874 44.4013 63.1105 45.518 64.0526 46.401C64.1937 46.5334 64.3404 46.6585 64.4897 46.7799V49.3787C64.1837 48.8345 63.8033 48.3414 63.346 47.9013C62.5606 47.0968 61.5406 46.4713 60.2851 46.0248C59.0287 45.5783 57.4927 45.3546 55.6754 45.3546H47.7014V40.1835H58.8371V34.7532H47.7014V30.7975H60.0148V25.0987H41.1745V45.3546H38.2483V58.562C38.2483 60.2166 37.8589 61.4338 37.0799 62.2163C36.3009 62.9988 35.2553 63.3897 33.942 63.3897C32.6287 63.3897 31.5831 62.9824 30.8041 62.167C30.0251 61.3516 29.6356 60.0942 29.6356 58.3958V45.3564H4V51.0543H11.0649V68.8209H17.5918V51.0543H22.974V58.53C22.974 60.3627 23.226 61.9551 23.731 63.3066C24.236 64.6589 24.959 65.7757 25.9011 66.6586C26.8432 67.5416 27.987 68.1954 29.3332 68.6191C30.6785 69.0437 32.1925 69.2565 33.8751 69.2565C35.5577 69.2565 37.0762 69.0437 38.4335 68.6191C39.7898 68.1945 40.9454 67.5416 41.8985 66.6586C42.8516 65.7757 43.5912 64.647 44.1191 63.2728C44.2859 62.839 44.4252 62.3779 44.5397 61.8921V68.82H51.0666V61.7141H53.9259L58.6694 68.82H83.5646V63.2892H70.9149V63.2874Z" fill="black"/>
<path d="M47.8895 4L49.1295 1.2H49.9855L51.2255 4H50.7455L50.4575 3.332H48.6575L48.3695 4H47.8895ZM48.8095 2.972H50.3055L49.7175 1.6H49.3975L48.8095 2.972ZM51.4236 2.6C51.4236 1.736 52.0796 1.16 53.0636 1.16C54.0476 1.16 54.6996 1.736 54.6996 2.6C54.6996 3.464 54.0476 4.04 53.0636 4.04C52.0796 4.04 51.4236 3.464 51.4236 2.6ZM51.8796 2.6C51.8796 3.248 52.3636 3.668 53.0636 3.668C53.7636 3.668 54.2436 3.248 54.2436 2.6C54.2436 1.952 53.7636 1.536 53.0636 1.536C52.3636 1.536 51.8796 1.952 51.8796 2.6ZM56.3805 4V1.2H56.8285V3.608H58.7405V4H56.3805ZM59.1005 4L60.3405 1.2H61.1965L62.4365 4H61.9565L61.6685 3.332H59.8685L59.5805 4H59.1005ZM60.0205 2.972H61.5165L60.9285 1.6H60.6085L60.0205 2.972ZM62.9547 4V1.2H64.4547C65.3307 1.2 65.9107 1.736 65.9107 2.6C65.9107 3.464 65.3307 4 64.4547 4H62.9547ZM64.4547 1.576H63.4027V3.624H64.4547C65.0467 3.624 65.4547 3.248 65.4547 2.6C65.4547 1.952 65.0467 1.576 64.4547 1.576ZM66.3923 2.6C66.3923 1.736 67.0483 1.16 68.0323 1.16C69.0163 1.16 69.6683 1.736 69.6683 2.6C69.6683 3.464 69.0163 4.04 68.0323 4.04C67.0483 4.04 66.3923 3.464 66.3923 2.6ZM66.8483 2.6C66.8483 3.248 67.3323 3.668 68.0323 3.668C68.7323 3.668 69.2123 3.248 69.2123 2.6C69.2123 1.952 68.7323 1.536 68.0323 1.536C67.3323 1.536 66.8483 1.952 66.8483 2.6ZM71.3492 4V1.2H72.8492C73.7252 1.2 74.3052 1.736 74.3052 2.6C74.3052 3.464 73.7252 4 72.8492 4H71.3492ZM72.8492 1.576H71.7972V3.624H72.8492C73.4412 3.624 73.8492 3.248 73.8492 2.6C73.8492 1.952 73.4412 1.576 72.8492 1.576ZM74.5067 4L75.7467 1.2H76.6027L77.8427 4H77.3627L77.0747 3.332H75.2747L74.9867 4H74.5067ZM75.4267 2.972H76.9227L76.3347 1.6H76.0147L75.4267 2.972ZM29.4781 10V7.2H31.9181V7.592H29.9261V8.336H31.5981V8.728H29.9261V9.608H31.9181V10H29.4781ZM34.6192 9.18C34.6192 8.816 34.2392 8.792 33.7912 8.788C33.1792 8.78 32.4392 8.808 32.4392 7.988C32.4392 7.324 33.0432 7.168 33.7672 7.16C34.1792 7.156 34.5672 7.2 34.9232 7.272V7.664C34.5312 7.58 34.0272 7.52 33.6632 7.528C33.2512 7.54 32.8872 7.644 32.8872 8C32.8872 8.388 33.2912 8.4 33.8272 8.4C34.3632 8.4 35.0672 8.388 35.0672 9.2C35.0672 9.764 34.5912 10.048 33.6432 10.036C33.1872 10.032 32.7232 9.96 32.4392 9.912V9.512C32.6592 9.544 33.1832 9.656 33.6952 9.66C34.3032 9.664 34.6192 9.512 34.6192 9.18ZM36.7486 10V7.592H35.3886V7.2H38.5606V7.592H37.1966V10H36.7486ZM38.3622 10L39.6022 7.2H40.4582L41.6982 10H41.2182L40.9302 9.332H39.1302L38.8422 10H38.3622ZM39.2822 8.972H40.7782L40.1902 7.6H39.8702L39.2822 8.972ZM43.5363 9.664C43.9603 9.664 44.4483 9.612 44.7523 9.528V9.92C44.4963 9.984 44.1763 10.032 43.6923 10.04L43.6363 10.14C43.7963 10.216 43.9003 10.368 43.9003 10.532C43.9003 10.832 43.6283 11 43.1123 10.96V10.672C43.3363 10.704 43.4883 10.608 43.4883 10.432C43.4883 10.332 43.3763 10.204 43.2243 10.14L43.2923 10.028C42.4483 9.94 41.8963 9.408 41.8963 8.6C41.8963 7.712 42.5643 7.16 43.5523 7.16C44.1163 7.16 44.4723 7.208 44.7523 7.28V7.672C44.4483 7.588 43.9603 7.536 43.5363 7.536C42.8283 7.536 42.3523 7.928 42.3523 8.6C42.3523 9.272 42.8283 9.664 43.5363 9.664ZM46.7011 6.724C46.6131 6.668 46.5211 6.608 46.4131 6.608C46.3091 6.608 46.1931 6.66 46.0611 6.808V6.428C46.2051 6.268 46.3251 6.212 46.4291 6.212C46.5771 6.212 46.6971 6.312 46.8211 6.38C46.8811 6.416 46.9571 6.444 47.0411 6.444C47.1531 6.444 47.2811 6.396 47.4251 6.256V6.636C47.2651 6.788 47.1291 6.84 47.0131 6.84C46.8891 6.84 46.7891 6.78 46.7011 6.724ZM45.0731 10L46.3131 7.2H47.1691L48.4091 10H47.9291L47.6411 9.332H45.8411L45.5531 10H45.0731ZM45.9931 8.972H47.4891L46.9011 7.6H46.5811L45.9931 8.972ZM48.6072 8.6C48.6072 7.736 49.2632 7.16 50.2472 7.16C51.2312 7.16 51.8832 7.736 51.8832 8.6C51.8832 9.464 51.2312 10.04 50.2472 10.04C49.2632 10.04 48.6072 9.464 48.6072 8.6ZM49.0632 8.6C49.0632 9.248 49.5472 9.668 50.2472 9.668C50.9472 9.668 51.4272 9.248 51.4272 8.6C51.4272 7.952 50.9472 7.536 50.2472 7.536C49.5472 7.536 49.0632 7.952 49.0632 8.6ZM53.5641 10V7.2H55.0961C55.8801 7.2 56.2561 7.436 56.2561 7.952C56.2561 8.212 56.1161 8.42 55.8321 8.532V8.572C56.1761 8.664 56.3641 8.896 56.3641 9.22C56.3641 9.752 55.9961 10 55.2041 10H53.5641ZM55.0841 7.576H54.0121V8.396H55.0841C55.5841 8.396 55.8001 8.272 55.8001 7.988C55.8001 7.7 55.5841 7.576 55.0841 7.576ZM55.1921 8.74H54.0121V9.624H55.1921C55.6881 9.624 55.9081 9.488 55.9081 9.18C55.9081 8.872 55.6921 8.74 55.1921 8.74ZM57.0055 10V7.2H58.5775C59.3615 7.2 59.7375 7.504 59.7375 8.072C59.7375 8.576 59.4695 8.896 58.9535 8.896C59.2615 9.188 59.4215 9.6 59.7175 9.6H60.0495V10H59.6135C58.9415 10 58.9055 9.024 58.1655 8.924H57.4535V10H57.0055ZM58.5655 7.576H57.4535V8.568H58.5655C59.0775 8.568 59.2815 8.408 59.2815 8.072C59.2815 7.736 59.0775 7.576 58.5655 7.576ZM60.408 8.6C60.408 7.736 61.064 7.16 62.048 7.16C63.032 7.16 63.684 7.736 63.684 8.6C63.684 9.464 63.032 10.04 62.048 10.04C61.064 10.04 60.408 9.464 60.408 8.6ZM60.864 8.6C60.864 9.248 61.348 9.668 62.048 9.668C62.748 9.668 63.228 9.248 63.228 8.6C63.228 7.952 62.748 7.536 62.048 7.536C61.348 7.536 60.864 7.952 60.864 8.6ZM64.1658 8.6C64.1658 7.736 64.8218 7.16 65.8058 7.16C66.7898 7.16 67.4418 7.736 67.4418 8.6C67.4418 9.464 66.7898 10.04 65.8058 10.04C64.8218 10.04 64.1658 9.464 64.1658 8.6ZM64.6218 8.6C64.6218 9.248 65.1058 9.668 65.8058 9.668C66.5058 9.668 66.9858 9.248 66.9858 8.6C66.9858 7.952 66.5058 7.536 65.8058 7.536C65.1058 7.536 64.6218 7.952 64.6218 8.6ZM68.0836 10V7.2H68.5316V8.68H68.5716L70.3076 7.2H70.9196L69.4196 8.464C70.0956 8.656 70.4236 9.584 70.8356 9.584H71.1676V10H70.7316C70.0476 10 69.8356 8.852 69.0476 8.776L68.5316 9.212V10H68.0836ZM71.6891 10V7.2H72.1371V9.608H74.0491V10H71.6891ZM74.6891 10V7.2H75.1371V10H74.6891ZM75.9352 10V7.2H76.3832L78.0872 9.252H78.1512V7.2H78.5992V10H78.1512L76.4512 7.952H76.3832V10H75.9352ZM53.6773 16V13.2H55.1773C56.0533 13.2 56.6333 13.736 56.6333 14.6C56.6333 15.464 56.0533 16 55.1773 16H53.6773ZM55.1773 13.576H54.1253V15.624H55.1773C55.7693 15.624 56.1773 15.248 56.1773 14.6C56.1773 13.952 55.7693 13.576 55.1773 13.576ZM57.275 16V13.2H59.715V13.592H57.723V14.336H59.395V14.728H57.723V15.608H59.715V16H57.275ZM61.4352 16V13.2H61.8832L63.0792 14.696H63.1832L64.3792 13.2H64.8272V16H64.3792V13.932H64.3192L63.3472 15.152H62.9152L61.9432 13.932H61.8832V16H61.4352ZM65.6266 16V13.2H68.0666V13.592H66.0746V14.336H67.7466V14.728H66.0746V15.608H68.0666V16H65.6266ZM69.7877 16V13.592H68.4277V13.2H71.5997V13.592H70.2357V16H69.7877ZM72.0797 16V13.2H73.6517C74.4357 13.2 74.8117 13.504 74.8117 14.072C74.8117 14.576 74.5437 14.896 74.0277 14.896C74.3357 15.188 74.4957 15.6 74.7917 15.6H75.1237V16H74.6877C74.0157 16 73.9797 15.024 73.2397 14.924H72.5277V16H72.0797ZM73.6397 13.576H72.5277V14.568H73.6397C74.1517 14.568 74.3557 14.408 74.3557 14.072C74.3557 13.736 74.1517 13.576 73.6397 13.576ZM76.2382 12.976L76.8582 12.088H77.3862L78.0062 12.976H77.5022L77.1702 12.46H77.0742L76.7422 12.976H76.2382ZM75.4822 14.6C75.4822 13.736 76.1382 13.16 77.1222 13.16C78.1062 13.16 78.7582 13.736 78.7582 14.6C78.7582 15.464 78.1062 16.04 77.1222 16.04C76.1382 16.04 75.4822 15.464 75.4822 14.6ZM75.9382 14.6C75.9382 15.248 76.4222 15.668 77.1222 15.668C77.8222 15.668 78.3022 15.248 78.3022 14.6C78.3022 13.952 77.8222 13.536 77.1222 13.536C76.4222 13.536 75.9382 13.952 75.9382 14.6Z" fill="black"/>
<path d="M22.7871 25.0065H92.1618" stroke="#803A2C" stroke-width="0.5"/>
<path d="M83.1499 0L83.1499 41.8022" stroke="#803A2C" stroke-width="0.5"/>
</svg>
