<svg width="482" height="150" viewBox="0 0 482 150" fill="none" xmlns="http://www.w3.org/2000/svg">
<g clip-path="url(#clip0_2128_244)">
<path d="M239.522 39.4676C237.601 39.3135 235.874 37.9683 234.772 35.7758C234.3 34.8378 233.914 34.0868 233.57 33.4458C233.356 33.6109 232.304 34.4169 232.304 34.4169C231.518 35.0221 230.624 35.3329 229.649 35.3329C228.353 35.3329 226.979 34.7663 225.89 33.7814L225.588 33.4871C224.005 31.754 223.178 29.0223 225.094 27.0912C225.463 26.717 225.796 26.3704 226.11 26.0376C225.438 25.6827 224.697 25.2976 223.833 24.8547L223.642 24.7584C221.307 23.5562 219.947 21.7323 219.908 19.7572V19.7132L219.913 19.4821C220.024 17.5262 221.396 15.7986 223.681 14.7395C224.661 14.2801 225.449 13.8977 226.126 13.5428C225.757 13.0944 225.41 12.69 225.052 12.2829C223.339 10.349 224.028 7.76587 225.463 6.06029C225.624 5.88973 225.754 5.76319 225.879 5.63665L225.963 5.55687C227.034 4.65732 228.359 4.14839 229.608 4.14839C230.546 4.14839 231.432 4.42349 232.248 4.96267C232.764 5.30379 233.245 5.62564 233.692 5.931C234.008 5.32304 234.355 4.62431 234.769 3.75501C235.818 1.54876 237.515 0.184304 239.413 0.0192478C239.599 0.010995 239.733 0.00824409 239.866 0.00549316L240.146 0.013746C242.081 0.165047 243.805 1.52401 244.891 3.74676C245.327 4.63531 245.682 5.33955 245.996 5.942C246.454 5.6339 246.937 5.30654 247.467 4.95992C248.286 4.42349 249.18 4.14839 250.127 4.14839C251.457 4.14839 252.814 4.70408 253.853 5.67516C253.914 5.73293 253.966 5.7852 254.019 5.84022C255.532 7.37799 256.396 10.0381 254.705 12.2279C254.344 12.701 254.005 13.1439 253.683 13.5648C254.45 13.9665 255.28 14.3846 256.013 14.7532C258.331 15.9196 259.697 17.7077 259.744 19.6636L259.749 19.7214V19.925C259.66 21.8836 258.292 23.6442 256.001 24.7694C254.983 25.2645 254.219 25.6442 253.586 25.9688C253.914 26.3319 254.266 26.7115 254.644 27.1214C256.407 29.0333 255.679 31.6522 254.175 33.4045C253.98 33.6081 253.828 33.7594 253.669 33.908C252.578 34.8158 251.251 35.3329 250.019 35.3329C249.039 35.3329 248.153 35.0248 247.387 34.4114C246.943 34.0593 246.529 33.7319 246.129 33.4211C245.754 34.1115 245.346 34.8928 244.88 35.7979C243.747 38.0069 242.084 39.3108 240.196 39.4758L239.769 39.4841L239.522 39.4786V39.4676ZM235.296 32.1556C235.691 32.8874 236.135 33.7457 236.684 34.835C237.448 36.348 238.517 37.2696 239.622 37.3576H239.777H240.055C241.135 37.2558 242.209 36.3315 242.978 34.8323C243.531 33.7622 244.003 32.8681 244.422 32.1061C242.57 30.7251 241.229 29.9301 239.938 29.9301C238.647 29.9301 237.281 30.7114 235.299 32.1584M247.195 31.5504C247.67 31.9218 248.175 32.3179 248.722 32.7526C249.111 33.0579 249.547 33.2147 250.03 33.2147C251.129 33.2147 252.134 32.4115 252.245 32.3179C252.331 32.2382 252.462 32.1061 252.589 31.9768C252.756 31.7705 254.269 29.8476 253.061 28.5437C252.551 27.9907 252.092 27.4873 251.659 27.0114C249.644 28.208 248.558 29.3112 247.192 31.5504M228.025 27.0939C227.601 27.5561 227.137 28.0402 226.615 28.5712C225.532 29.666 226.476 31.3083 227.131 32.0263L227.348 32.2354C227.864 32.7031 228.747 33.2092 229.647 33.2092C230.144 33.2092 230.596 33.0497 230.996 32.7443L231.793 32.1336C232.043 31.941 232.281 31.7567 232.52 31.5807C231.221 29.4239 230.166 28.3731 228.023 27.0967M229.414 25.4571C231.598 26.8023 232.864 28.076 234.239 30.307C236.36 28.7912 238.153 27.7926 239.944 27.7926C241.734 27.7926 243.453 28.772 245.491 30.2575C246.915 27.9797 248.2 26.662 250.246 25.3911C246.865 21.3115 246.923 19.2345 250.524 14.2306C248.1 12.7671 246.729 11.3998 245.266 8.99829C242.689 10.7424 241.287 11.5649 239.835 11.5649C238.384 11.5649 236.984 10.7396 234.408 8.98178C232.989 11.2843 231.526 12.7698 229.305 14.1673C232.42 18.5248 232.448 21.5315 229.408 25.4571M227.459 15.2346C226.671 15.6528 225.752 16.1067 224.588 16.6486C223.037 17.3694 222.112 18.4257 222.045 19.5454V19.7627C222.079 20.9153 223.023 22.0515 224.625 22.8795L224.816 22.9758C225.871 23.5204 226.757 23.9744 227.542 24.398C230.199 21.0804 230.18 18.9704 227.459 15.2374M252.39 15.2759C249.105 19.7489 249.072 20.7695 252.131 24.3292C252.867 23.9413 253.758 23.4984 255.055 22.8657C256.626 22.0927 257.559 20.9978 257.612 19.8672V19.7269C257.587 18.5688 256.651 17.4409 255.044 16.6321C254.158 16.1865 253.228 15.7161 252.39 15.2759ZM247.023 7.79888C248.361 10.0299 249.522 11.1825 251.793 12.5222C252.17 12.0243 252.564 11.5044 253 10.9404C254.058 9.56773 253.117 7.95568 252.47 7.29271L252.39 7.21568C252.287 7.12215 251.329 6.25286 250.124 6.25286C249.611 6.25286 249.114 6.41241 248.647 6.71776C248.064 7.10565 247.523 7.46327 247.023 7.79888ZM229.586 6.26386C228.839 6.26386 228.042 6.56921 227.401 7.10565L227.051 7.46052C226.443 8.18951 225.652 9.74654 226.657 10.8772C227.17 11.4604 227.62 11.9885 228.012 12.4755C230.069 11.2073 231.357 9.90334 232.648 7.77962C232.159 7.44951 231.632 7.09189 231.06 6.71501C230.61 6.41791 230.113 6.26386 229.586 6.26386ZM235.463 7.13591C237.742 8.69568 238.9 9.44669 239.838 9.44669C240.777 9.44669 241.932 8.69843 244.222 7.14416C243.872 6.47293 243.478 5.69992 242.973 4.66557C242.22 3.13605 241.138 2.20624 239.991 2.11821H239.91C239.772 2.11821 239.658 2.11821 239.547 2.12371C238.483 2.21724 237.409 3.16631 236.701 4.65457C236.224 5.6559 235.827 6.45092 235.468 7.13591" fill="#1E1E1C"/>
<path d="M78.7783 5.99152L82.1792 6.02728V32.9561H75.9243V31.2148C75.9243 31.2148 78.8144 30.9315 78.8144 29.3772L78.781 5.99152H78.7783Z" fill="#1E1E1C"/>
<path d="M109.164 32.9561L105.766 32.9204V5.99152H112.018V7.73286C112.018 7.73286 109.128 8.0162 109.128 9.57048L109.161 32.9561H109.164Z" fill="#1E1E1C"/>
<path d="M107.129 17.4106H81.2964V20.5825H107.129V17.4106Z" fill="#1E1E1C"/>
<path d="M132.709 29.9494L134.317 33.0167H112.018L126.363 7.64208C126.363 7.64208 127.154 6.04654 128.356 6.04654C129.558 6.04654 130.33 7.43576 130.33 7.43576L144.558 33.0194H140.841L128.423 10.5471L117.546 29.9521H132.707L132.709 29.9494Z" fill="#1E1E1C"/>
<path d="M143.156 7.79888V6.02728H149.342V21.5453C149.342 21.5453 148.595 30.3455 162.054 30.3455C162.054 30.3455 174.392 31.3716 174.392 21.5453V6.05754H177.723V21.4187C177.723 21.4187 178.575 33.4843 162.087 33.4843C145.599 33.4843 146.08 21.6058 146.08 21.6058V9.97762C146.08 9.97762 146.385 8.26654 143.156 7.79888Z" fill="#1E1E1C"/>
<path d="M211.098 9.25963L213.378 6.0878H192.542C192.542 6.0878 183.364 5.68067 183.364 13.7079C183.364 21.7351 192.639 20.9511 192.639 20.9511H203.725C203.725 20.9511 209.805 20.4532 209.805 25.3361C209.805 30.219 203.725 29.8448 203.725 29.8448H185.982C185.982 29.8448 183.839 30.0924 183.839 26.7996H181.937V32.9231H203.858C203.858 32.9231 213.136 33.6109 213.136 25.2755C213.136 16.9402 203.619 18.0929 203.619 18.0929H192.267C192.267 18.0929 186.623 18.467 186.623 13.6446C186.623 8.82223 192.029 9.25963 192.029 9.25963H211.096H211.098Z" fill="#1E1E1C"/>
<path d="M316.245 6.74252C315.498 6.98736 311.248 7.72185 311.248 11.1935C311.248 12.2389 312.35 12.0848 312.35 12.0848H315.493C315.493 12.0848 316.953 12.2196 316.953 10.6158V7.05613C316.953 7.05613 316.895 6.53345 316.245 6.74527M316.909 14.4424H312.575C311.159 14.4424 311.251 15.7766 311.251 15.7766V32.7333H315.673C317.045 32.7333 316.912 31.3523 316.912 31.3523V14.4396L316.909 14.4424ZM320.448 8.38758C320.448 12.6158 325.665 12.1701 325.665 12.1701H329.249V31.3083C329.249 32.9534 330.573 32.8626 330.573 32.8626H334.996V14.1755C334.996 11.994 336.856 12.1729 336.856 12.1729H344.416V6.682H320.44L320.446 8.39033L320.448 8.38758ZM289.241 10.6709L288.777 10.6048C289.01 6.16483 284.66 6.6655 284.66 6.6655H280.879C269.138 6.6655 269.532 18.6183 269.532 18.6183V27.8972C269.532 30.4335 267.178 29.8338 267.178 29.8338V32.7031H271.062C275.407 32.7031 275.274 27.3305 275.274 27.3305V19.185C275.274 11.6089 283.236 12.2114 283.236 12.2114H285.096C286.026 12.2114 285.89 13.1467 285.89 13.1467V32.7416C291.798 32.7416 291.595 27.2342 291.595 27.2342V18.7558C291.595 11.8152 298.3 12.2141 298.3 12.2141H300.787C301.684 12.2141 301.517 13.2155 301.517 13.2155V28.0017C301.517 32.8103 305.465 32.7416 305.465 32.7416H307.256V6.66275H295.443C290.104 6.66275 289.241 10.6681 289.241 10.6681M398.216 17.4436H389.06C385.612 17.4436 384.582 20.9813 384.385 21.5508C384.182 22.1175 384.615 22.1862 384.615 22.1862H398.316C399.643 22.1862 399.543 21.2509 399.543 21.2509V18.3817C399.543 17.3336 398.216 17.4436 398.216 17.4436ZM373.835 15.2429C373.835 6.60773 365.035 6.60773 365.035 6.60773H347.916L347.93 32.6893H349.885C354.152 32.6893 353.844 27.259 353.844 27.259V11.994H364.724C367.625 11.994 368.552 14.4204 368.552 15.5317C368.552 16.6431 367.955 19.0667 364.857 20.2468C361.761 21.427 360.26 19.98 358.685 19.1575C357.117 18.3349 355.637 19.185 355.193 19.5123C354.774 19.8232 355.348 20.2688 355.348 20.2688L367.247 32.1061C367.997 32.8186 368.663 32.7333 368.663 32.7333H375.254L366.939 24.321C366.939 24.321 373.838 23.1188 373.838 15.2429M399.446 27.4598H387.103C383.588 27.4598 383.985 24.6208 383.985 24.6208V13.7409C383.985 11.7052 385.645 11.906 385.645 11.906H399.61C405.845 11.906 405.978 6.63249 405.978 6.63249H376.42V7.50453C378.646 9.43843 378.347 12.2746 378.347 12.2746V27.7624C378.347 32.9341 383.919 32.7361 383.919 32.7361H405.948C405.948 27.4268 399.446 27.4625 399.446 27.4625" fill="#1E1E1C"/>
<path d="M75.4272 132.408H84.8969C89.6082 132.408 91.8264 133.816 91.8264 136.928C91.8264 138.677 90.9047 139.962 89.0085 140.606V140.804C91.3017 141.346 92.4761 142.754 92.4761 144.927C92.4761 148.187 90.305 149.695 85.5716 149.695H75.4272V132.408ZM77.4733 134.111V139.989H84.8498C88.2895 139.989 89.7609 139.101 89.7609 137.073C89.7609 135.046 88.2895 134.111 84.8498 134.111H77.4733ZM77.4733 141.568V147.989H85.5216C88.9364 147.989 90.4327 147.001 90.4327 144.779C90.4327 142.556 88.9364 141.568 85.5216 141.568H77.4733Z" fill="#020203"/>
<path d="M75.4272 132.408H84.8969C89.6082 132.408 91.8264 133.816 91.8264 136.928C91.8264 138.677 90.9047 139.962 89.0085 140.606V140.804C91.3017 141.346 92.4761 142.754 92.4761 144.927C92.4761 148.187 90.305 149.695 85.5716 149.695H75.4272V132.408ZM77.4733 134.111V139.989H84.8498C88.2895 139.989 89.7609 139.101 89.7609 137.073C89.7609 135.046 88.2895 134.111 84.8498 134.111H77.4733ZM77.4733 141.568V147.989H85.5216C88.9364 147.989 90.4327 147.001 90.4327 144.779C90.4327 142.556 88.9364 141.568 85.5216 141.568H77.4733Z" stroke="#020203" stroke-width="0.43" stroke-miterlimit="10"/>
<path d="M121.868 132.405H131.513C136.221 132.405 138.417 134.16 138.417 137.618C138.417 140.875 136.599 142.652 133.181 142.652H132.584C135.352 144.407 136.199 147.887 138.517 147.887H140.486V149.689H138.067C133.881 149.689 133.759 143.197 128.323 142.773H123.911V149.689H121.871V132.402L121.868 132.405ZM123.909 134.111V141.15H131.46C134.925 141.15 136.368 140.036 136.368 137.621C136.368 135.205 134.925 134.113 131.46 134.113H123.909V134.111Z" fill="#020203"/>
<path d="M121.868 132.405H131.513C136.221 132.405 138.417 134.16 138.417 137.618C138.417 140.875 136.599 142.652 133.181 142.652H132.584C135.352 144.407 136.199 147.887 138.517 147.887H140.486V149.689H138.067C133.881 149.689 133.759 143.197 128.323 142.773H123.911V149.689H121.871V132.402L121.868 132.405ZM123.909 134.111V141.15H131.46C134.925 141.15 136.368 140.036 136.368 137.621C136.368 135.205 134.925 134.113 131.46 134.113H123.909V134.111Z" stroke="#020203" stroke-width="0.43" stroke-miterlimit="10"/>
<path d="M178.048 132.16C184.203 132.16 188.114 135.714 188.114 141.048C188.114 146.383 184.2 149.939 178.048 149.939C171.896 149.939 167.976 146.385 167.976 141.048C167.976 135.712 171.89 132.16 178.048 132.16ZM178.048 148.237C182.934 148.237 186.046 145.398 186.046 141.051C186.046 136.705 182.931 133.866 178.048 133.866C173.164 133.866 170.024 136.705 170.024 141.051C170.024 145.398 173.189 148.237 178.048 148.237Z" fill="#020203"/>
<path d="M178.048 132.16C184.203 132.16 188.114 135.714 188.114 141.048C188.114 146.383 184.2 149.939 178.048 149.939C171.896 149.939 167.976 146.385 167.976 141.048C167.976 135.712 171.89 132.16 178.048 132.16ZM178.048 148.237C182.934 148.237 186.046 145.398 186.046 141.051C186.046 136.705 182.931 133.866 178.048 133.866C173.164 133.866 170.024 136.705 170.024 141.051C170.024 145.398 173.189 148.237 178.048 148.237Z" stroke="#020203" stroke-width="0.43" stroke-miterlimit="10"/>
<path d="M226.43 132.16C232.584 132.16 236.496 135.714 236.496 141.048C236.496 146.383 232.582 149.939 226.43 149.939C220.277 149.939 216.357 146.385 216.357 141.048C216.357 135.712 220.275 132.16 226.43 132.16ZM226.43 148.237C231.316 148.237 234.428 145.398 234.428 141.051C234.428 136.705 231.313 133.866 226.43 133.866C221.546 133.866 218.403 136.705 218.403 141.051C218.403 145.398 221.571 148.237 226.43 148.237Z" fill="#020203"/>
<path d="M226.43 132.16C232.584 132.16 236.496 135.714 236.496 141.048C236.496 146.383 232.582 149.939 226.43 149.939C220.277 149.939 216.357 146.385 216.357 141.048C216.357 135.712 220.275 132.16 226.43 132.16ZM226.43 148.237C231.316 148.237 234.428 145.398 234.428 141.051C234.428 136.705 231.313 133.866 226.43 133.866C221.546 133.866 218.403 136.705 218.403 141.051C218.403 145.398 221.571 148.237 226.43 148.237Z" stroke="#020203" stroke-width="0.43" stroke-miterlimit="10"/>
<path d="M265.888 132.405H267.931V142.407H268.156L280.168 132.405H282.981L273.386 140.33C277.823 141.343 279.891 147.813 282.856 147.813H284.874V149.692H282.434C278.17 149.692 276.676 142.234 271.69 141.739L267.928 144.853V149.695H265.885V132.408L265.888 132.405Z" fill="#020203"/>
<path d="M265.888 132.405H267.931V142.407H268.156L280.168 132.405H282.981L273.386 140.33C277.823 141.343 279.891 147.813 282.856 147.813H284.874V149.692H282.434C278.17 149.692 276.676 142.234 271.69 141.739L267.928 144.853V149.695H265.885V132.408L265.888 132.405Z" stroke="#020203" stroke-width="0.43" stroke-miterlimit="10"/>
<path d="M313.422 132.405H315.465V147.915H327.925V149.695H313.422V132.405Z" fill="#020203"/>
<path d="M313.422 132.405H315.465V147.915H327.925V149.695H313.422V132.405Z" stroke="#020203" stroke-width="0.43" stroke-miterlimit="10"/>
<path d="M359.357 132.408H357.314V149.695H359.357V132.408Z" fill="#020203"/>
<path d="M359.357 132.408H357.314V149.695H359.357V132.408Z" stroke="#020203" stroke-width="0.43" stroke-miterlimit="10"/>
<path d="M389.901 132.405H391.947L404.135 146.336H404.457V132.405H406.475V149.695H404.432L392.272 135.789H391.947V149.695H389.901V132.405Z" fill="#020203"/>
<path d="M389.901 132.405H391.947L404.135 146.336H404.457V132.405H406.475V149.695H404.432L392.272 135.789H391.947V149.695H389.901V132.405Z" stroke="#020203" stroke-width="0.43" stroke-miterlimit="10"/>
<path d="M22.2514 94.2469C12.3126 94.1726 0 93.8783 0 79.3259C0 67.197 10.8301 63.9647 25.8855 63.8189C33.7478 63.7446 41.313 64.5534 47.6928 65.8766V74.4017C40.6467 72.8584 31.4491 71.8296 24.6251 71.9038C16.6157 72.1239 10.161 73.9615 10.161 79.6945C10.161 86.0876 17.8012 86.1619 23.5119 86.0876C38.5701 86.0876 50.2885 86.6763 50.2885 100.86C50.2885 111.592 41.313 116.882 22.9927 116.661C14.4641 116.587 5.41364 115.413 0.222098 114.384V105.784C4.59743 106.593 14.1671 108.431 23.3647 108.431C34.4169 108.505 40.2025 106.004 40.2025 100.566C40.2025 94.6871 33.5257 94.3184 22.2514 94.2442V94.2469Z" fill="black"/>
<path d="M96.7264 72.9299H72.0264V64.5506H131.588V72.9299H106.812V115.999H96.7237V72.9299H96.7264Z" fill="black"/>
<path d="M165.86 64.5533H184.477L206.804 116.001H196.048L191.154 104.535H159.186L154.291 116.001H143.536L165.863 64.5533H165.86ZM187.961 96.7447L177.947 73.1528H172.309L162.37 96.7447H187.961Z" fill="black"/>
<path d="M243.447 72.9299H218.747V64.5506H278.308V72.9299H253.533V115.999H243.444V72.9299H243.447Z" fill="black"/>
<path d="M303.011 64.5533H313.1V116.001H303.011V64.5533Z" fill="black"/>
<path d="M371.698 63.8161C390.759 63.8161 402.703 74.3989 402.703 90.2746C402.703 106.15 390.759 116.733 371.698 116.733C352.636 116.733 340.693 106.15 340.693 90.2746C340.693 74.3989 352.708 63.8161 371.698 63.8161ZM371.698 108.576C384.157 108.576 392.467 101.446 392.467 90.2746C392.467 79.103 384.16 72.0469 371.698 72.0469C359.235 72.0469 350.929 79.103 350.929 90.2746C350.929 101.446 359.31 108.576 371.698 108.576Z" fill="black"/>
<path d="M430.226 64.5533H440.759L470.801 99.9798H471.914V64.5533H482.003V116.001H471.62L441.506 80.429H440.318V116.001H430.229V64.5533H430.226Z" fill="black"/>
</g>
<defs>
<clipPath id="clip0_2128_244">
<rect width="482" height="150" fill="white"/>
</clipPath>
</defs>
</svg>
