<svg width="169" height="68" viewBox="0 0 169 68" fill="none" xmlns="http://www.w3.org/2000/svg">
<path d="M51.2534 7.34619H74.2367V11.8606C74.2367 12.5067 73.7102 13.0322 73.058 13.0322H66.3907C65.7407 13.0322 65.212 13.5556 65.212 14.2039V30.9864L65.225 32.438H61.5869C60.2782 32.438 59.2186 31.3848 59.2186 30.0839V14.2039C59.2186 13.5578 58.6942 13.0322 58.0442 13.0322H55.717C55.067 13.0322 51.2534 12.9482 51.2534 9.30185" fill="white"/>
<path d="M40.0664 32.4379L40.0339 14.5742L40.0469 7.34817H27.5033C22.6908 7.34817 22.0126 11.3198 22.0126 11.3198C22.0126 11.3198 21.7612 7.3374 17.7873 7.3374H13.7007C4.01076 7.3374 2.92735 15.5262 2.92735 19.8941V27.6026C2.92735 27.6026 3.1332 29.2976 1.65977 29.2976H0V32.4379H2.92735C2.92735 32.4379 4.88398 32.4379 4.93165 32.4379C9.4061 32.3173 8.9229 26.726 8.9229 26.726V20.5919C8.9229 14.0767 12.2966 13.0342 16.9726 13.0342H18.0127C18.6432 13.0342 18.628 13.0342 18.628 13.8613V31.6108C18.628 32.6274 18.5479 32.4336 19.5684 32.44C19.6334 32.44 19.6746 32.44 19.6833 32.44C24.9096 32.44 24.5802 26.7281 24.5802 26.7281V19.8963C24.5802 13.7041 27.6744 13.0364 32.3526 13.0364H33.3926C34.0232 13.0364 34.008 13.0364 34.008 13.8634V27.5078C34.008 31.404 36.9722 32.4422 38.1986 32.4422H40.0014H40.0664V32.4379Z" fill="white"/>
<path d="M130.34 7.9579C130.34 7.39576 130.446 7.33545 129.88 7.33545H103.924C103.454 7.33545 103.443 7.46252 103.458 7.91052C103.46 8.00098 103.465 8.33266 103.465 8.42743C103.465 8.42743 105.27 10.0966 105.27 12.6618V24.1696C105.27 26.7089 105.98 28.712 107.402 30.1744C108.674 31.4796 111.07 32.199 113.304 32.339C113.309 32.339 113.315 32.3433 113.317 32.3433H113.478C113.69 32.3541 113.9 32.367 114.121 32.367L114.11 32.3498L130.077 32.4402V31.5399C130.077 29.02 128.021 26.976 125.486 26.976H114.392C112.405 26.976 111.155 26.7736 111.155 24.469V12.804H124.065C129.95 12.804 130.337 7.96221 130.337 7.96221L130.34 7.9579Z" fill="white"/>
<path d="M112.184 22.4464C111.8 22.4464 111.729 22.3237 111.636 22.1384C111.545 21.9511 112.715 16.9844 117.534 16.9844H124.693C125.02 16.9844 125.718 17.2256 125.8 17.9321V21.5074C125.718 22.1234 125.183 22.399 124.686 22.4443H112.184V22.4464Z" fill="white"/>
<path d="M48.708 7.80264C48.708 7.47957 48.5736 7.41927 48.37 7.33958C48.1684 7.26419 42.9833 8.19895 42.7233 12.0026C42.7168 12.0995 42.7254 12.4979 42.7514 12.5755C42.8489 12.8662 43.1436 13.2432 43.7547 13.297H47.6787C48.3526 13.2281 48.6581 12.7779 48.708 12.3601V7.80049V7.80264Z" fill="white"/>
<path d="M48.7075 31.1928C48.7075 31.8799 48.1463 32.4377 47.4551 32.4377H42.7119V16.8032C42.7119 16.1161 43.2731 15.5562 43.9665 15.5562H48.7075" fill="white"/>
<path d="M102.847 31.3095L95.7013 24.3656C97.4673 24.0468 98.6677 23.2973 99.9547 22.0223C101.593 20.3983 102.494 18.2488 102.494 15.9658C102.494 11.2058 98.529 7.33545 94.2972 7.33545H76.7808V32.4359H79.1447C81.175 32.4359 82.8218 30.799 82.8218 28.7809V12.6101H93.658C93.671 12.6101 93.684 12.6101 93.697 12.6101C95.5735 12.6295 97.0946 14.1286 97.0946 15.9679C97.0946 16.2716 97.0404 16.5602 96.9624 16.8424C96.9559 16.8919 96.9494 16.9414 96.9342 16.9867C95.957 20.1441 92.5638 20.6912 91.5389 20.6934C90.228 20.6977 89.7751 20.5017 88.4902 19.8878C88.1738 19.7371 87.6885 19.3903 87.2074 19.1835C85.6213 18.5008 83.8229 19.6401 83.7189 19.8878C83.6149 20.1355 83.8359 20.2626 84.0287 20.4521L96.2907 32.2464C96.4164 32.3713 96.5897 32.4402 96.7674 32.4402H104.026L102.847 31.3116V31.3095Z" fill="white"/>
<path d="M144.962 7.78189C145.635 8.24711 146.21 8.64126 146.704 8.95787C147.408 9.40802 147.956 9.69663 148.392 9.84524C148.684 9.94216 148.92 9.98308 149.154 9.98308C149.388 9.98308 149.625 9.94216 149.919 9.84524C150.21 9.74401 150.552 9.58463 150.957 9.35202C151.767 8.8911 152.014 8.71018 153.455 7.71728L153.189 7.0539L153.046 7.07329C151.839 7.90897 151.284 8.29019 150.578 8.69295C150.223 8.89326 149.917 9.03971 149.666 9.12802C149.468 9.19479 149.306 9.22494 149.152 9.22494C148.998 9.22494 148.838 9.19479 148.632 9.12587C148.266 9.0031 147.768 8.73818 147.111 8.32034C146.597 7.99296 146.002 7.58159 145.274 7.07975L144.955 7.7862L144.962 7.78189ZM159.093 4.79671C159.813 4.79671 160.485 4.97117 161.076 5.23609C161.663 5.49886 162.172 5.85423 162.584 6.24192L162.593 6.25053L162.601 6.257L162.721 6.37976L162.727 6.38407C163.119 6.79114 163.49 7.30375 163.772 7.90466C164.049 8.50557 164.244 9.19479 164.244 9.93785C164.248 10.7606 163.99 11.648 163.388 12.432C162.768 13.2483 162.209 13.987 161.709 14.6655C160.66 16.0762 159.889 17.2005 159.399 18.1223C158.905 19.0506 158.706 19.7506 158.706 20.3687C158.708 20.9653 158.883 21.5576 159.321 22.3158C159.759 23.0718 160.459 23.9699 161.427 25.0727C161.98 25.7059 162.614 26.4059 163.338 27.1963C164.012 27.9243 164.294 28.8203 164.289 29.6387C164.289 30.3624 164.094 31.0344 163.832 31.6224C163.566 32.2104 163.228 32.7165 162.888 33.1214L162.866 33.1473L162.842 33.171C162.706 33.311 162.56 33.4553 162.406 33.6039L162.389 33.6211L162.367 33.6383C161.969 33.9743 161.477 34.2953 160.907 34.5386C160.339 34.7842 159.696 34.9586 159.002 34.9586H158.979C158.177 34.9586 157.304 34.698 156.552 34.0885C156.196 33.8042 155.858 33.5307 155.536 33.2744L155.163 33.9506C155.347 34.0971 155.538 34.25 155.737 34.4094L156.043 34.6549C156.043 34.6549 156.06 34.6679 156.066 34.6743C156.894 35.3485 157.928 35.7189 158.976 35.7189C159.728 35.7189 160.472 35.5574 161.208 35.2365C161.804 34.9802 162.354 34.6399 162.846 34.2263C162.872 34.2048 162.907 34.1768 162.924 34.1574C163.093 33.9959 163.243 33.8451 163.386 33.7008L163.392 33.6943C163.412 33.6771 163.431 33.6556 163.449 33.634L163.473 33.6082C163.891 33.1085 164.255 32.5313 164.526 31.9325C164.874 31.1593 165.05 30.3883 165.052 29.6409C165.059 28.5575 164.662 27.5215 163.928 26.716C163.919 26.7052 163.91 26.6988 163.904 26.688C163.148 25.8609 162.536 25.1868 162.003 24.5751C161.009 23.4401 160.368 22.6044 159.984 21.9389C159.626 21.3164 159.47 20.8447 159.468 20.3644C159.468 19.8518 159.661 19.2488 160.075 18.4755C160.504 17.6657 161.197 16.6297 162.324 15.1156C162.825 14.4372 163.382 13.7006 163.999 12.8907C164.666 12.0227 165.015 10.9975 165.009 9.93354C165.009 9.15171 164.825 8.36127 164.465 7.58589C164.168 6.95052 163.759 6.35607 163.28 5.85854C163.267 5.84346 163.249 5.82839 163.234 5.81547L163.145 5.72501C163.13 5.70993 163.115 5.69485 163.1 5.68193C162.604 5.21671 162.027 4.82902 161.39 4.54472C160.638 4.20873 159.867 4.03857 159.093 4.03857H159.08C158.066 4.03857 157.065 4.34872 156.188 4.93456C155.234 5.56778 156.062 5.00563 154.87 5.81977L155.035 6.6016V6.61668C155.728 6.14069 155.731 6.15361 156.615 5.56562C157.414 5.03148 158.274 4.79887 159.08 4.79887M153.553 31.7387C152.693 31.099 151.962 30.6101 151.328 30.2741C150.498 29.8326 149.854 29.656 149.239 29.656C148.623 29.656 147.96 29.839 147.111 30.287C146.264 30.7307 145.243 31.4393 143.976 32.3999C143.317 32.8974 142.591 33.4639 141.774 34.0993C141.011 34.698 140.14 34.9565 139.328 34.9565H139.311C138.582 34.9565 137.904 34.7691 137.308 34.4956C136.71 34.222 136.197 33.8666 135.781 33.4876H135.785C135.69 33.4036 135.62 33.3282 135.568 33.2744L135.562 33.2679L135.553 33.2614L135.477 33.1817L135.467 33.1688C135.105 32.7661 134.752 32.2578 134.474 31.6633C134.197 31.071 134 30.3969 133.995 29.6646C133.987 28.8246 134.297 27.9049 135.02 27.1769C135.733 26.4511 136.355 25.7813 136.892 25.1502V25.1545C137.74 24.1573 138.359 23.2699 138.758 22.4579C139.159 21.6438 139.339 20.9158 139.341 20.1663C139.341 19.4232 139.159 18.6414 138.741 17.7325C138.448 17.0928 138.034 16.395 137.499 15.6282L136.86 16.0439C137.38 16.7848 137.77 17.4482 138.045 18.0512C138.407 18.8395 138.576 19.5115 138.576 20.1684C138.576 20.8017 138.413 21.4241 138.071 22.1262C137.718 22.8499 137.148 23.6727 136.333 24.6354C136.327 24.6419 136.318 24.6505 136.312 24.6613C135.794 25.2643 135.194 25.9148 134.472 26.6492C133.662 27.4634 133.222 28.5403 133.233 29.6753C133.233 30.4313 133.419 31.211 133.783 31.9864C134.069 32.5981 134.453 33.1796 134.89 33.6685C134.905 33.6857 134.921 33.703 134.931 33.7159L135.007 33.7934C135.007 33.7934 135.025 33.8128 135.038 33.8214L135.074 33.858C135.122 33.9076 135.178 33.9636 135.248 34.0282C135.256 34.0346 135.263 34.0433 135.272 34.0476C135.774 34.5063 136.37 34.9005 136.996 35.1891C137.766 35.5402 138.548 35.7189 139.319 35.7189C140.39 35.7189 141.395 35.37 142.24 34.7088C142.24 34.7088 142.249 34.7023 142.253 34.7002L142.684 34.3642C143.323 33.8666 143.906 33.4144 144.444 33.0116C144.452 33.0051 144.459 32.9987 144.467 32.9944C145.815 31.9756 146.743 31.3488 147.475 30.9633C148.19 30.5864 148.736 30.4184 149.247 30.4184C149.759 30.4184 150.285 30.5821 150.977 30.9482C151.572 31.2627 152.281 31.7322 153.221 32.4387L153.562 31.743L153.553 31.7387ZM135.969 13.6402C135.662 13.2676 135.332 12.8821 134.979 12.4815C134.318 11.7298 134.039 10.8295 134.043 10.0025C134.043 9.30463 134.221 8.65418 134.472 8.08127C134.719 7.5062 135.042 7.00867 135.373 6.60591L135.397 6.58007L135.421 6.55637C135.564 6.40776 135.711 6.2613 135.848 6.12131L135.876 6.09331L135.904 6.07177C136.717 5.39547 137.885 4.80533 139.25 4.79887H139.256C140.062 4.79887 140.927 5.02717 141.724 5.56347C142.166 5.85854 142.58 6.14069 142.968 6.40561L143.334 5.73362C142.962 5.47947 142.567 5.2124 142.151 4.9324C141.28 4.34872 140.279 4.03857 139.254 4.03857C137.412 4.04934 136.058 4.95179 135.412 5.49024L135.395 5.50101C135.369 5.52039 135.345 5.54409 135.324 5.56562L135.298 5.59362L135.22 5.66901C135.105 5.78531 134.986 5.90377 134.869 6.02869C134.858 6.03946 134.825 6.07392 134.814 6.08469C134.812 6.089 134.784 6.117 134.782 6.12131C134.366 6.6253 134.026 7.18313 133.768 7.77758C133.443 8.52065 133.278 9.26802 133.278 9.99816C133.272 11.0858 133.67 12.1455 134.403 12.979C134.726 13.3473 135.022 13.6962 135.298 14.0279M154.207 10.22L154.329 10.0262L153.988 9.44032L152.545 10.4268C151.787 10.9092 151.139 11.2689 150.483 11.4929C150.045 11.6415 149.603 11.7255 149.156 11.7255C148.71 11.7255 148.268 11.6415 147.833 11.4929C147.395 11.3443 146.961 11.1332 146.498 10.8683C145.835 10.4871 145.102 9.99601 144.216 9.38648C144.21 9.38217 144.205 9.3714 144.199 9.37355C144.145 9.40155 143.839 10.0498 143.839 10.0498C144.71 10.6508 145.445 11.1418 146.116 11.5274C146.667 11.8418 147.133 12.0594 147.583 12.2123C148.116 12.3953 148.645 12.4858 149.156 12.4858C149.668 12.4858 150.199 12.3953 150.73 12.2123C151.531 11.9387 152.274 11.4994 152.959 11.0686M139.011 14.7602C139.549 15.5421 139.984 16.283 140.318 17.0045C140.812 18.0792 141.076 19.126 141.076 20.1663C141.076 21.2066 140.808 22.2275 140.316 23.2268C139.822 24.2262 139.115 25.2213 138.21 26.2831H138.208C137.636 26.9529 136.99 27.6508 136.253 28.3981C135.859 28.8117 135.737 29.2015 135.731 29.6624C135.731 30.0609 135.848 30.5046 136.045 30.9224C136.238 31.3359 136.504 31.7193 136.749 31.9885L136.804 32.0467L136.791 32.0316C136.864 32.1048 136.916 32.1587 136.955 32.191C137.235 32.4538 137.616 32.7165 138.028 32.9039C138.442 33.0934 138.886 33.2097 139.308 33.2097C139.785 33.2033 140.236 33.0805 140.706 32.7187C141.518 32.0876 142.244 31.5147 142.927 31.0064C144.225 30.0264 145.295 29.2726 146.298 28.7406C147.3 28.2151 148.255 27.9071 149.239 27.9071C150.223 27.9071 151.161 28.2064 152.142 28.7298C152.857 29.1089 153.603 29.6043 154.439 30.2224L154.844 29.5741C153.91 28.887 153.189 28.424 152.502 28.0578C151.354 27.444 150.288 27.1468 149.241 27.1468C148.194 27.1468 147.137 27.4397 145.943 28.0664C144.801 28.6738 143.605 29.5396 142.485 30.3883C142.478 30.3904 142.476 30.3926 142.472 30.3969C141.956 30.7824 141.417 31.2024 140.834 31.6547L140.24 32.1178C140.24 32.1178 140.234 32.1242 140.229 32.1264C139.937 32.3504 139.659 32.4451 139.304 32.4494C139.018 32.4494 138.686 32.3676 138.353 32.2147C138.036 32.0725 137.72 31.8615 137.482 31.6396C137.471 31.6288 137.46 31.6202 137.447 31.6095C137.423 31.5858 137.389 31.5492 137.341 31.5018C137.334 31.4953 137.328 31.4888 137.321 31.4824L137.308 31.4673C137.1 31.2369 136.884 30.9095 136.741 30.5993C136.582 30.2633 136.498 29.9338 136.498 29.6646C136.504 29.3932 136.554 29.1886 136.812 28.9194C137.553 28.1655 138.197 27.472 138.769 26.8065C138.78 26.7957 138.788 26.7849 138.799 26.7742C139.809 25.5896 140.511 24.5687 141.007 23.5607C141.564 22.4278 141.848 21.2863 141.848 20.1663C141.848 19.0463 141.577 17.9026 141.02 16.69C140.671 15.9341 140.218 15.1565 139.631 14.3036M156.346 31.6892C156.755 32.0144 157.187 32.3611 157.642 32.7273C158.099 33.0913 158.53 33.2119 159.002 33.2162C159.399 33.2162 159.821 33.1107 160.216 32.9405C160.599 32.7747 160.955 32.5442 161.223 32.3202C161.336 32.2125 161.453 32.0962 161.572 31.9756C161.804 31.6956 162.06 31.3165 162.242 30.9052C162.432 30.4873 162.549 30.0393 162.549 29.6387C162.541 29.18 162.426 28.788 162.053 28.3744L162.032 28.3486L162.053 28.3723C161.327 27.5775 160.686 26.8711 160.118 26.2228C159.124 25.0813 158.357 24.1207 157.815 23.1924C157.278 22.2662 156.963 21.338 156.968 20.3666C156.968 19.3543 157.295 18.3635 157.861 17.2996C158.433 16.2313 159.247 15.0575 160.309 13.6209C160.818 12.9338 161.382 12.1907 162.003 11.3723C162.374 10.8812 162.502 10.4182 162.504 9.9357C162.504 9.50278 162.387 9.05479 162.194 8.64557C162.003 8.23419 161.735 7.86374 161.479 7.60097L161.488 7.60959L161.384 7.5062C161.113 7.25205 160.755 7.00437 160.359 6.82775C159.96 6.64899 159.527 6.53914 159.091 6.53914C158.597 6.54345 158.103 6.66837 157.575 7.01514L156.376 7.91112L156.573 8.17819L156.669 8.54649L158.001 7.64835C158.359 7.41359 158.699 7.30375 159.098 7.30159C159.395 7.30159 159.726 7.37913 160.047 7.52128C160.339 7.65482 160.628 7.84435 160.859 8.06189L160.929 8.12865C160.929 8.12865 160.929 8.13081 160.933 8.13296C161.154 8.35911 161.36 8.6628 161.501 8.96649C161.661 9.30248 161.743 9.63632 161.741 9.9357C161.739 10.304 161.635 10.5991 161.392 10.92L161.362 10.9588C160.751 11.7643 160.199 12.4966 159.694 13.175C158.773 14.4221 157.83 15.7402 157.187 16.9463C156.515 18.2085 156.201 19.2961 156.201 20.3709C156.199 21.422 156.508 22.4709 157.154 23.5779C157.666 24.4567 158.357 25.3677 159.54 26.7246C160.079 27.3406 160.693 28.0191 161.462 28.859C161.468 28.8698 161.477 28.8763 161.483 28.8849C161.698 29.1261 161.778 29.3264 161.785 29.6581C161.785 29.9166 161.7 30.2547 161.546 30.5972C161.416 30.8922 161.219 31.2089 161.005 31.4716C160.905 31.5707 160.81 31.6676 160.716 31.7559C160.474 31.9541 160.188 32.1264 159.91 32.247C159.587 32.387 159.273 32.4602 159 32.4602C158.664 32.4559 158.409 32.3633 158.125 32.1436L158.118 32.1393C157.648 31.7602 157.221 31.4178 156.823 31.1012L156.342 31.6913L156.346 31.6892ZM141.616 8.51634L142.16 7.96496C141.724 7.66559 141.256 7.34898 140.758 7.01298C140.238 6.67053 139.744 6.54345 139.248 6.5413H139.235C138.413 6.5413 137.579 6.93975 137.038 7.39851C136.923 7.51266 136.81 7.62682 136.702 7.73451C136.472 8.01019 136.238 8.37634 136.065 8.7748C135.889 9.17756 135.781 9.60401 135.785 10.0003C135.792 10.472 135.913 10.892 136.286 11.3271C136.71 11.8117 137.103 12.2747 137.469 12.7206L138.101 12.2877C137.729 11.8267 137.319 11.3443 136.864 10.8274C136.645 10.5711 136.554 10.3342 136.55 9.98954C136.55 9.73109 136.628 9.40155 136.769 9.07633C136.895 8.78772 137.077 8.48619 137.274 8.24281L137.519 7.99512L137.558 7.95635C137.932 7.65051 138.585 7.30159 139.233 7.30159C139.638 7.30159 139.984 7.41144 140.338 7.64405C140.851 7.99081 141.332 8.31819 141.781 8.62403" fill="white"/>
<path d="M142.726 33.8902C143.007 34.4329 143.33 35.0683 143.718 35.8415C144.286 36.9787 144.996 37.9005 145.837 38.5747C146.702 39.2747 147.701 39.6925 148.723 39.7744H148.743C148.769 39.7808 148.795 39.7808 148.821 39.7808H148.892L149.04 39.7851C149.055 39.7851 149.079 39.7851 149.098 39.7851C149.109 39.7851 149.12 39.7851 149.126 39.7851H149.206C149.274 39.7851 149.343 39.7808 149.408 39.7808H149.445C149.469 39.7808 149.492 39.7808 149.516 39.7765H149.555C150.572 39.6861 151.568 39.2704 152.435 38.5725C153.276 37.8941 153.991 36.9787 154.565 35.8501C155.282 34.4394 155.841 33.3862 156.322 32.5354C157.198 30.9911 157.893 30.0025 158.649 29.2358C159.232 28.6392 159.884 28.1309 160.803 27.5709L160.467 26.8838C159.499 27.4697 158.766 28.0253 158.101 28.7059C157.28 29.5416 156.548 30.5927 155.657 32.165C155.135 33.0868 154.556 34.1874 153.885 35.5077C153.354 36.5523 152.701 37.3836 151.956 37.9824C151.211 38.5812 150.361 38.9408 149.486 39.0162L149.447 39.0205H149.41C149.313 39.0205 149.213 39.0248 149.111 39.0248H149.087H149.063L148.894 39.0205H148.823L148.788 39.0162C147.911 38.9451 147.061 38.5855 146.318 37.9845C145.573 37.3858 144.927 36.5501 144.405 35.5034C144.013 34.7194 143.655 34.0194 143.326 33.3905L142.728 33.8923L142.726 33.8902ZM137.638 27.7303C138.561 28.301 139.209 28.7986 139.763 29.3542C140.368 29.9638 140.927 30.7111 141.564 31.7773L142.169 31.3034C141.529 30.2416 140.953 29.4705 140.307 28.8201C139.69 28.202 138.988 27.67 138.065 27.0992L137.64 27.7324L137.638 27.7303ZM162.517 14.0277C163.172 14.3724 163.9 14.745 164.71 15.1563C165.804 15.7142 166.669 16.4077 167.273 17.2068C167.869 17.9908 168.207 18.8889 168.233 19.7999L168.224 19.7504L168.235 19.843C168.235 19.8279 168.235 19.8129 168.235 19.7999L168.24 19.8323L168.235 20.0907V20.1058C168.194 21.0125 167.845 21.8999 167.241 22.6753C166.636 23.4507 165.782 24.1226 164.701 24.6589H164.699C163.876 25.066 163.148 25.4278 162.495 25.7638L163.089 26.3152C163.661 26.0223 164.303 25.7035 165.037 25.3417C166.22 24.7537 167.163 24.0128 167.843 23.1427C168.55 22.2359 168.948 21.1956 168.996 20.1424C168.996 20.1316 168.996 20.1187 168.996 20.1079L169 19.8473C169 19.8086 169 19.7698 168.994 19.7353C168.953 18.6886 168.569 17.6591 167.882 16.7523C167.206 15.8585 166.255 15.0939 165.057 14.4844C164.298 14.0988 163.618 13.7521 163.005 13.429L162.517 14.0321V14.0277ZM149.196 0.75814H149.291H149.302L149.427 0.762448H149.445C150.335 0.833523 151.204 1.19536 151.96 1.80274C152.721 2.41011 153.375 3.25871 153.889 4.32269C154.498 5.57836 155.02 6.62296 155.505 7.50386C156.374 9.07614 157.115 10.1315 157.988 11.0016C158.68 11.6887 159.477 12.281 160.528 12.9164L160.996 12.3112C159.917 11.6629 159.172 11.1007 158.528 10.4632C157.724 9.66198 157.02 8.66692 156.173 7.13772C155.75 6.37096 155.286 5.4599 154.576 3.991C154.012 2.82795 153.291 1.8932 152.437 1.21044C151.557 0.506145 150.543 0.0883061 149.503 0.00861523C149.49 0.00861523 149.462 0.00430761 149.451 0.00430761L149.326 0H149.211C149.211 0 149.2 0 149.198 0H149.187L148.936 0.00430761L148.799 0.00861523H148.756C148.732 0.00861523 148.717 0.00861523 148.702 0.010769C147.655 0.103383 146.654 0.525529 145.787 1.23413C144.951 1.9212 144.249 2.85379 143.703 4.01039C143.079 5.33067 142.576 6.32789 142.125 7.14202C141.332 8.57646 140.617 9.58444 139.802 10.4137C138.994 11.2386 138.024 11.9558 136.658 12.7312C136.65 12.7376 136.639 12.7419 136.628 12.7484C135.774 13.2373 134.708 13.7801 133.272 14.4607C132.089 15.0163 131.146 15.7314 130.461 16.5886C129.762 17.4609 129.356 18.4754 129.289 19.52C129.285 19.5544 129.28 19.591 129.28 19.6169V19.8646C129.28 19.8646 129.278 19.9098 129.278 19.9141C129.302 20.9996 129.688 22.0722 130.394 23.0156C131.072 23.9223 132.021 24.6999 133.213 25.3223L133.341 25.3912C134.041 25.7552 134.667 26.0805 135.231 26.3798L135.857 25.85C135.183 25.4903 134.424 25.0962 133.566 24.6503C132.472 24.0796 131.608 23.3731 131.003 22.5633C130.401 21.7578 130.058 20.8359 130.039 19.899V19.8646C130.039 19.7633 130.043 19.688 130.043 19.6427V19.6169L130.048 19.5932C130.1 18.6929 130.448 17.8163 131.057 17.0603C131.662 16.3 132.518 15.6539 133.597 15.1456C134.94 14.5102 136.058 13.9502 137.005 13.4096H137.009C138.431 12.5976 139.46 11.8481 140.344 10.9456C141.228 10.0454 141.976 8.97922 142.788 7.51033C143.287 6.61003 143.807 5.56544 144.387 4.33346C144.888 3.27379 145.525 2.42949 146.266 1.82212C147.009 1.21259 147.865 0.8486 148.743 0.771063L148.773 0.766755H148.803C148.916 0.764602 149.033 0.760294 149.165 0.75814H149.189M144.725 32.3093C145.102 33.0243 145.508 33.8212 145.956 34.7215C146.39 35.5852 146.894 36.212 147.404 36.6233C147.913 37.0304 148.42 37.2307 148.912 37.2759H148.929L149.092 37.2802C149.17 37.2802 149.254 37.2781 149.341 37.2759C149.839 37.2286 150.351 37.0283 150.864 36.6147C151.382 36.2033 151.893 35.5787 152.329 34.7151C153.007 33.3775 153.596 32.2597 154.138 31.2991C155.068 29.6644 155.885 28.469 156.853 27.4804C157.525 26.7912 158.262 26.214 159.122 25.6605L158.758 24.9906C157.77 25.6195 157 26.2377 156.305 26.9506C155.347 27.9263 154.5 29.1152 153.475 30.9244C152.968 31.8182 152.387 32.9145 151.648 34.3705C151.291 35.0769 150.855 35.6477 150.387 36.0203C150.025 36.3089 149.67 36.4704 149.302 36.5135C149.23 36.5135 149.161 36.5156 149.096 36.5156H148.955C148.593 36.4747 148.242 36.3132 147.885 36.0267C147.427 35.6584 146.996 35.0898 146.641 34.3791C146.125 33.3474 145.718 32.5483 145.36 31.8742L144.725 32.305V32.3093ZM139.168 25.7358C140.084 26.3152 140.847 26.8967 141.534 27.5903C142.249 28.3053 142.864 29.1195 143.493 30.1339L144.112 29.6859C143.432 28.5961 142.793 27.7733 142.078 27.054C141.404 26.3755 140.652 25.7789 139.642 25.1349L139.168 25.7358ZM161.254 16.1945C161.943 16.5585 162.708 16.9505 163.572 17.3898C164.316 17.7668 164.905 18.2234 165.273 18.7144C165.57 19.1107 165.72 19.4984 165.728 19.8926V19.9227C165.728 19.9356 165.728 19.9486 165.728 19.9593V19.9895C165.707 20.3815 165.553 20.7562 165.258 21.1375C164.896 21.6027 164.329 22.0399 163.614 22.4017C163.605 22.4061 163.598 22.4082 163.59 22.4125C162.58 22.91 161.735 23.3322 160.992 23.722L161.319 24.4091C162.086 24.0063 162.944 23.5799 163.928 23.0953L163.921 23.0996H163.926C164.816 22.6537 165.453 22.1347 165.865 21.6027C166.274 21.0728 166.465 20.543 166.491 20.0261V20.0519V19.9399V19.927V19.8818C166.48 19.352 166.294 18.8114 165.882 18.26C165.473 17.7172 164.823 17.1745 163.919 16.7135C163.067 16.2806 162.3 15.8908 161.607 15.5225L161.254 16.1966V16.1945ZM137.872 14.928L137.885 14.9173L137.872 14.9237C136.866 15.5009 135.705 16.0803 134.34 16.7265C133.456 17.1422 132.828 17.6397 132.418 18.1523C132.013 18.6649 131.82 19.1818 131.79 19.6966C131.79 19.7698 131.785 19.8301 131.785 19.8667V19.871C131.796 20.4052 131.985 20.9608 132.401 21.5208C132.819 22.0808 133.469 22.6344 134.37 23.106C135.389 23.6337 136.273 24.0925 137.055 24.5146L137.478 23.8771C136.693 23.4507 135.811 22.9919 134.769 22.4534L134.726 22.4319C133.987 22.0442 133.393 21.5725 133.016 21.0664C132.719 20.6636 132.561 20.2544 132.552 19.8538V19.8107L132.557 19.7116C132.578 19.3584 132.73 18.9923 133.023 18.624C133.384 18.1695 133.956 17.7495 134.669 17.4157C136.245 16.6683 137.311 16.1256 138.232 15.6022C138.238 15.5979 138.247 15.5936 138.253 15.5893C139.909 14.648 141.109 13.7585 142.14 12.701C143.165 11.6564 144.043 10.4309 144.988 8.72723C145.469 7.85709 145.984 6.83403 146.663 5.40606C146.994 4.70176 147.408 4.13531 147.863 3.76485C148.21 3.48271 148.572 3.31686 148.94 3.27379H149.027L149.198 3.26733H149.23L149.291 3.27163C149.644 3.30394 150.028 3.46978 150.396 3.76701C150.862 4.13962 151.291 4.71253 151.638 5.42329C152.27 6.72419 152.797 7.78386 153.315 8.72077C154.318 10.5386 155.189 11.7555 156.227 12.785C157.005 13.5604 157.9 14.2474 159.102 14.9862L159.432 14.297C158.392 13.6551 157.531 13.0111 156.764 12.2465C155.731 11.2213 154.894 10.0023 153.982 8.35246C153.469 7.42417 152.94 6.35804 152.322 5.0916C151.9 4.22146 151.393 3.58824 150.873 3.17471C150.357 2.76118 149.835 2.55657 149.323 2.51349L149.241 2.50919H149.183C149.096 2.50919 148.994 2.51349 148.886 2.51565C148.387 2.56734 147.878 2.7698 147.375 3.17902C146.866 3.5904 146.374 4.21931 145.969 5.08514C145.376 6.33435 144.842 7.4091 144.316 8.36108C143.458 9.90967 142.615 11.1266 141.592 12.1712C140.57 13.2179 139.382 14.073 137.874 14.9302" fill="white"/>
<path d="M51.2687 43.4053H52.4951L48.155 53.5109H47.1453L42.8052 43.4053H44.0749L47.6653 52.0485L51.2709 43.4053H51.2687Z" fill="white"/>
<path d="M66.1088 44.4369H59.9508V47.8637H65.4588V48.8953H59.9508V52.4082H66.1803V53.4399H58.811V43.4053H66.1088V44.4369Z" fill="white"/>
<path d="M80.2259 43.4053H81.3353V53.4399H80.4274L73.9097 45.2123V53.4399H72.8003V43.4053H73.8664L80.2259 51.4476V43.4053Z" fill="white"/>
<path d="M92.0242 53.4399H88.5205V43.4053H92.0242C95.1964 43.4053 97.3892 45.5698 97.3892 48.4086C97.3892 51.2473 95.1964 53.4399 92.0242 53.4399ZM92.0242 44.452H89.6602V52.3931H92.0242C94.5767 52.3931 96.2062 50.6722 96.2062 48.4366C96.2062 46.2009 94.5767 44.452 92.0242 44.452Z" fill="white"/>
<path d="M112.862 53.4401H111.636L110.453 50.7888H104.958L103.762 53.4401H102.594L107.194 43.3345H108.26L112.86 53.4401H112.862ZM107.714 44.6526L105.406 49.77H110.006L107.714 44.6526Z" fill="white"/>
<path d="M122.598 47.877C124.847 48.3638 125.885 49.1822 125.885 50.7287C125.885 52.4625 124.442 53.5803 122.438 53.5803C120.837 53.5803 119.526 53.0505 118.314 51.9757L119.021 51.1444C120.074 52.0899 121.084 52.5637 122.481 52.5637C123.879 52.5637 124.73 51.8616 124.73 50.8428C124.73 49.8973 124.225 49.3675 122.106 48.9216C119.786 48.4198 118.717 47.6746 118.717 46.0118C118.717 44.3491 120.117 43.2593 122.035 43.2593C123.506 43.2593 124.559 43.675 125.582 44.4913L124.919 45.3657C123.983 44.6054 123.045 44.2759 122.007 44.2759C120.694 44.2759 119.857 44.9931 119.857 45.9106C119.857 46.8281 120.377 47.401 122.596 47.8749L122.598 47.877Z" fill="white"/>
</svg>
