<svg width="167" height="40" viewBox="0 0 167 40" fill="none" xmlns="http://www.w3.org/2000/svg">
<path d="M50.5713 7.25293H73.2489V11.7094C73.2489 12.3473 72.7293 12.866 72.0858 12.866H65.5072C64.8658 12.866 64.3442 13.3827 64.3442 14.0227V30.5899L64.357 32.0229H60.7673C59.476 32.0229 58.4305 30.9832 58.4305 29.699V14.0227C58.4305 13.3848 57.9131 12.866 57.2717 12.866H54.9755C54.3341 12.866 50.5713 12.7831 50.5713 9.1835" fill="white"/>
<path d="M39.5334 32.0226L39.5013 14.3881L39.5142 7.25477H27.1374C22.3889 7.25477 21.7197 11.1754 21.7197 11.1754C21.7197 11.1754 21.4717 7.24414 17.5507 7.24414H13.5185C3.9574 7.24414 2.88841 15.3279 2.88841 19.6398V27.2494C2.88841 27.2494 3.09152 28.9227 1.63769 28.9227H0V32.0226H2.88841C2.88841 32.0226 4.81901 32.0226 4.86604 32.0226C9.28097 31.9036 8.8042 26.384 8.8042 26.384V20.3286C8.8042 13.897 12.133 12.8679 16.7468 12.8679H17.773C18.3952 12.8679 18.3802 12.8679 18.3802 13.6843V31.2062C18.3802 32.2097 18.3011 32.0184 19.3081 32.0247C19.3722 32.0247 19.4129 32.0247 19.4214 32.0247C24.5782 32.0247 24.2533 26.3861 24.2533 26.3861V19.6419C24.2533 13.5291 27.3063 12.87 31.9222 12.87H32.9484C33.5706 12.87 33.5556 12.87 33.5556 13.6865V27.1558C33.5556 31.0021 36.4804 32.0269 37.6905 32.0269H39.4693H39.5334V32.0226Z" fill="white"/>
<path d="M128.607 7.85665C128.607 7.30172 128.711 7.24219 128.153 7.24219H102.542C102.078 7.24219 102.068 7.36763 102.083 7.80988C102.085 7.89918 102.089 8.22661 102.089 8.32016C102.089 8.32016 103.87 9.96795 103.87 12.5002V23.8604C103.87 26.3672 104.571 28.3445 105.974 29.7882C107.229 31.0766 109.593 31.7868 111.798 31.925C111.802 31.925 111.808 31.9292 111.811 31.9292H111.969C112.178 31.9399 112.386 31.9526 112.604 31.9526L112.593 31.9356L128.348 32.0249V31.1362C128.348 28.6486 126.319 26.6308 123.817 26.6308H112.871C110.91 26.6308 109.677 26.4309 109.677 24.1559V12.6406H122.415C128.222 12.6406 128.604 7.86091 128.604 7.86091L128.607 7.85665Z" fill="white"/>
<path d="M110.693 22.1591C110.314 22.1591 110.244 22.0379 110.152 21.855C110.062 21.6701 111.216 16.7671 115.971 16.7671H123.035C123.358 16.7671 124.046 17.0052 124.128 17.7026V21.2321C124.046 21.8402 123.518 22.1123 123.029 22.157H110.693V22.1591Z" fill="white"/>
<path d="M48.06 7.70339C48.06 7.38446 47.9274 7.32493 47.7265 7.24626C47.5276 7.17185 42.4114 8.09461 42.1549 11.8494C42.1485 11.9451 42.157 12.3385 42.1827 12.415C42.2789 12.702 42.5696 13.0741 43.1726 13.1273H47.0444C47.7093 13.0592 48.0108 12.6149 48.06 12.2024V7.70126V7.70339Z" fill="white"/>
<path d="M48.0598 30.7935C48.0598 31.4717 47.5061 32.0224 46.8241 32.0224H42.144V16.5885C42.144 15.9102 42.6978 15.3574 43.3819 15.3574H48.0598" fill="white"/>
<path d="M101.48 30.9087L94.4286 24.0539C96.1711 23.7392 97.3555 22.9993 98.6255 21.7406C100.242 20.1375 101.131 18.0155 101.131 15.7618C101.131 11.0629 97.2187 7.24219 93.0432 7.24219H75.7598V32.0207H78.0923C80.0956 32.0207 81.7205 30.4048 81.7205 28.4125V12.4492H92.4125C92.4253 12.4492 92.4382 12.4492 92.451 12.4492C94.3025 12.4683 95.8033 13.9482 95.8033 15.7639C95.8033 16.0637 95.7499 16.3486 95.6729 16.6271C95.6665 16.676 95.6601 16.7249 95.6451 16.7696C94.6809 19.8866 91.3328 20.4266 90.3215 20.4287C89.0281 20.433 88.5812 20.2395 87.3134 19.6336C87.0013 19.4847 86.5224 19.1424 86.0477 18.9383C84.4827 18.2643 82.7082 19.389 82.6056 19.6336C82.503 19.8781 82.721 20.0035 82.9113 20.1906L95.0101 31.8336C95.1341 31.9569 95.3052 32.0249 95.4805 32.0249H102.643L101.48 30.9108V30.9087Z" fill="white"/>
<path d="M143.033 7.68163C143.697 8.14088 144.264 8.52997 144.751 8.84252C145.446 9.28689 145.987 9.5718 146.417 9.7185C146.706 9.81418 146.939 9.85458 147.17 9.85458C147.4 9.85458 147.633 9.81418 147.924 9.7185C148.211 9.61857 148.549 9.46124 148.948 9.23161C149.748 8.77661 149.992 8.59801 151.413 7.61784L151.15 6.96298L151.009 6.98211C149.819 7.80707 149.271 8.1834 148.574 8.581C148.224 8.77873 147.922 8.92331 147.674 9.01049C147.48 9.0764 147.319 9.10617 147.167 9.10617C147.016 9.10617 146.857 9.0764 146.654 9.00836C146.293 8.88717 145.801 8.62565 145.153 8.21317C144.647 7.88999 144.059 7.48389 143.34 6.98849L143.026 7.68588L143.033 7.68163ZM156.976 4.73474C157.686 4.73474 158.349 4.90696 158.933 5.16848C159.512 5.42788 160.015 5.7787 160.421 6.16141L160.429 6.16991L160.438 6.17629L160.555 6.29748L160.562 6.30174C160.949 6.70358 161.314 7.20961 161.592 7.80282C161.866 8.39602 162.058 9.0764 162.058 9.80993C162.063 10.6221 161.808 11.4981 161.214 12.272C160.602 13.0779 160.051 13.8071 159.557 14.4769C158.522 15.8695 157.761 16.9794 157.278 17.8894C156.79 18.8058 156.594 19.4968 156.594 20.107C156.596 20.696 156.769 21.2807 157.201 22.0291C157.633 22.7754 158.323 23.662 159.279 24.7506C159.824 25.3757 160.451 26.0667 161.165 26.847C161.83 27.5656 162.108 28.4501 162.103 29.2581C162.103 29.9725 161.911 30.6359 161.652 31.2163C161.389 31.7967 161.056 32.2964 160.72 32.6961L160.699 32.7216L160.675 32.745C160.54 32.8832 160.397 33.0257 160.245 33.1724L160.228 33.1894L160.207 33.2064C159.814 33.5381 159.328 33.8549 158.766 34.0951C158.206 34.3375 157.571 34.5097 156.887 34.5097H156.863C156.072 34.5097 155.21 34.2525 154.469 33.6508C154.118 33.3701 153.784 33.1001 153.466 32.8471L153.098 33.5147C153.28 33.6593 153.468 33.8102 153.665 33.9676L153.966 34.21C153.966 34.21 153.983 34.2227 153.99 34.2291C154.806 34.8946 155.826 35.2603 156.861 35.2603C157.603 35.2603 158.336 35.1008 159.063 34.784C159.651 34.531 160.194 34.1951 160.679 33.7868C160.705 33.7656 160.739 33.7379 160.756 33.7188C160.923 33.5593 161.071 33.4105 161.212 33.2681L161.218 33.2617C161.237 33.2447 161.257 33.2234 161.274 33.2021L161.297 33.1766C161.71 32.6834 162.069 32.1135 162.336 31.5225C162.681 30.7592 162.854 29.998 162.856 29.2602C162.862 28.1907 162.471 27.1681 161.746 26.3729C161.738 26.3622 161.729 26.3559 161.723 26.3452C160.977 25.5288 160.374 24.8633 159.848 24.2594C158.866 23.1389 158.234 22.314 157.855 21.657C157.502 21.0425 157.348 20.5769 157.346 20.1028C157.346 19.5967 157.537 19.0014 157.945 18.2381C158.368 17.4387 159.052 16.416 160.164 14.9213C160.658 14.2515 161.208 13.5244 161.817 12.7249C162.475 11.8681 162.82 10.856 162.813 9.80568C162.813 9.03388 162.631 8.25357 162.277 7.48814C161.984 6.86092 161.58 6.2741 161.107 5.78295C161.094 5.76807 161.077 5.75318 161.062 5.74043L160.974 5.65113C160.96 5.63624 160.945 5.62136 160.93 5.6086C160.44 5.14935 159.871 4.76664 159.243 4.48598C158.501 4.1543 157.74 3.98633 156.976 3.98633H156.964C155.963 3.98633 154.975 4.2925 154.109 4.87082C153.169 5.49591 153.985 4.94098 152.81 5.74468L152.972 6.51648V6.53136C153.656 6.06148 153.658 6.07424 154.531 5.49379C155.32 4.9665 156.168 4.73687 156.964 4.73687M151.51 31.3311C150.661 30.6996 149.94 30.217 149.314 29.8853C148.495 29.4494 147.86 29.2751 147.253 29.2751C146.646 29.2751 145.992 29.4558 145.153 29.8981C144.317 30.3361 143.31 31.0356 142.06 31.9838C141.41 32.475 140.694 33.0342 139.888 33.6614C139.135 34.2525 138.276 34.5076 137.474 34.5076H137.457C136.738 34.5076 136.069 34.3226 135.481 34.0526C134.891 33.7826 134.384 33.4318 133.974 33.0576H133.978C133.884 32.9746 133.816 32.9002 133.764 32.8471L133.758 32.8407L133.749 32.8343L133.675 32.7556L133.664 32.7429C133.307 32.3453 132.958 31.8435 132.685 31.2567C132.411 30.672 132.217 30.0065 132.212 29.2836C132.204 28.4544 132.509 27.5465 133.223 26.8279C133.927 26.1113 134.54 25.4501 135.071 24.8271V24.8314C135.907 23.847 136.518 22.971 136.912 22.1694C137.307 21.3657 137.484 20.6471 137.487 19.9072C137.487 19.1736 137.307 18.4018 136.894 17.5046C136.606 16.8731 136.197 16.1842 135.669 15.4273L135.039 15.8376C135.552 16.5691 135.937 17.2239 136.208 17.8192C136.565 18.5974 136.732 19.2608 136.732 19.9093C136.732 20.5344 136.572 21.1488 136.234 21.842C135.885 22.5564 135.323 23.3686 134.519 24.319C134.513 24.3253 134.504 24.3339 134.498 24.3445C133.987 24.9398 133.395 25.5819 132.683 26.3069C131.883 27.1106 131.449 28.1737 131.46 29.2942C131.46 30.0405 131.644 30.8102 132.003 31.5756C132.285 32.1795 132.663 32.7535 133.095 33.2362C133.11 33.2532 133.125 33.2702 133.136 33.2829L133.211 33.3595C133.211 33.3595 133.228 33.3786 133.241 33.3871L133.277 33.4233C133.324 33.4722 133.38 33.5275 133.448 33.5912C133.457 33.5976 133.463 33.6061 133.471 33.6104C133.968 34.0632 134.555 34.4523 135.173 34.7372C135.932 35.0838 136.704 35.2603 137.465 35.2603C138.521 35.2603 139.513 34.9158 140.347 34.2631C140.347 34.2631 140.356 34.2567 140.36 34.2546L140.786 33.9229C141.416 33.4318 141.991 32.9853 142.522 32.5877C142.53 32.5813 142.537 32.5749 142.545 32.5707C143.875 31.565 144.79 30.9463 145.513 30.5657C146.218 30.1936 146.757 30.0278 147.261 30.0278C147.766 30.0278 148.286 30.1894 148.968 30.5508C149.556 30.8612 150.255 31.3247 151.183 32.0221L151.518 31.3354L151.51 31.3311ZM134.16 13.4648C133.856 13.097 133.531 12.7164 133.183 12.3209C132.531 11.5789 132.255 10.6902 132.259 9.87372C132.259 9.18483 132.435 8.54273 132.683 7.97717C132.926 7.40948 133.245 6.91833 133.572 6.52073L133.596 6.49522L133.619 6.47183C133.76 6.32512 133.906 6.18054 134.04 6.04234L134.068 6.0147L134.096 5.99344C134.898 5.32582 136.05 4.74325 137.397 4.73687H137.403C138.199 4.73687 139.052 4.96224 139.838 5.49166C140.275 5.78295 140.683 6.06148 141.066 6.323L141.427 5.65963C141.059 5.40874 140.67 5.1451 140.26 4.86869C139.4 4.2925 138.412 3.98633 137.401 3.98633C135.584 3.99696 134.248 4.88783 133.61 5.41937L133.593 5.43C133.568 5.44914 133.544 5.47253 133.523 5.49379L133.497 5.52143L133.42 5.59585C133.307 5.71066 133.189 5.8276 133.074 5.95092C133.063 5.96155 133.031 5.99557 133.02 6.0062C133.018 6.01045 132.99 6.03809 132.988 6.04234C132.578 6.53987 132.242 7.09055 131.988 7.67737C131.667 8.41091 131.505 9.14869 131.505 9.86946C131.498 10.9432 131.892 11.9893 132.614 12.8121C132.933 13.1757 133.226 13.5201 133.497 13.8475M152.155 10.0885L152.275 9.8971L151.939 9.31878L150.515 10.2926C149.767 10.7688 149.128 11.1239 148.48 11.345C148.048 11.4917 147.612 11.5747 147.172 11.5747C146.731 11.5747 146.295 11.4917 145.865 11.345C145.434 11.1983 145.006 10.99 144.548 10.7284C143.894 10.3521 143.172 9.86734 142.297 9.26563C142.291 9.26138 142.286 9.25075 142.28 9.25287C142.227 9.28051 141.925 9.92049 141.925 9.92049C142.785 10.5137 143.509 10.9985 144.172 11.3791C144.715 11.6895 145.175 11.9042 145.62 12.0552C146.145 12.2359 146.667 12.3252 147.172 12.3252C147.676 12.3252 148.2 12.2359 148.724 12.0552C149.515 11.7852 150.248 11.3514 150.924 10.9262M137.162 14.5704C137.692 15.3422 138.122 16.0737 138.451 16.7859C138.938 17.8469 139.199 18.8802 139.199 19.9072C139.199 20.9341 138.934 21.9419 138.449 22.9285C137.961 23.915 137.264 24.8973 136.371 25.9455H136.368C135.804 26.6067 135.167 27.2956 134.44 28.0334C134.051 28.4416 133.931 28.8265 133.925 29.2815C133.925 29.6748 134.04 30.1128 134.235 30.5253C134.425 30.9335 134.688 31.312 134.93 31.5777L134.983 31.6352L134.97 31.6203C135.043 31.6926 135.094 31.7457 135.133 31.7776C135.409 32.037 135.785 32.2964 136.191 32.4814C136.599 32.6685 137.038 32.7833 137.455 32.7833C137.925 32.7769 138.37 32.6557 138.834 32.2985C139.635 31.6756 140.352 31.11 141.025 30.6082C142.306 29.6408 143.362 28.8966 144.352 28.3715C145.339 27.8527 146.282 27.5486 147.253 27.5486C148.224 27.5486 149.149 27.8442 150.118 28.3608C150.823 28.735 151.559 29.2241 152.384 29.8343L152.784 29.1943C151.862 28.516 151.15 28.0589 150.473 27.6975C149.34 27.0915 148.288 26.7981 147.255 26.7981C146.222 26.7981 145.179 27.0873 144.001 27.706C142.874 28.3056 141.694 29.1603 140.589 29.998C140.582 30.0001 140.58 30.0022 140.576 30.0065C140.067 30.3871 139.535 30.8017 138.96 31.2482L138.374 31.7053C138.374 31.7053 138.367 31.7117 138.363 31.7138C138.075 31.9349 137.801 32.0285 137.45 32.0327C137.168 32.0327 136.841 31.952 136.512 31.801C136.2 31.6607 135.887 31.4523 135.652 31.2333C135.642 31.2227 135.631 31.2142 135.618 31.2035C135.595 31.1801 135.56 31.144 135.513 31.0972C135.507 31.0908 135.5 31.0845 135.494 31.0781L135.481 31.0632C135.276 30.8357 135.062 30.5125 134.921 30.2064C134.765 29.8747 134.682 29.5494 134.682 29.2836C134.688 29.0157 134.737 28.8137 134.992 28.5479C135.723 27.8038 136.358 27.1192 136.922 26.4622C136.933 26.4515 136.941 26.4409 136.952 26.4303C137.948 25.2609 138.641 24.2531 139.131 23.258C139.68 22.1396 139.96 21.0128 139.96 19.9072C139.96 18.8015 139.693 17.6725 139.144 16.4755C138.799 15.7292 138.353 14.9617 137.773 14.1197M154.266 31.2822C154.67 31.6033 155.095 31.9456 155.544 32.307C155.995 32.6663 156.421 32.7854 156.887 32.7897C157.278 32.7897 157.695 32.6855 158.084 32.5175C158.462 32.3538 158.813 32.1263 159.078 31.9052C159.189 31.7989 159.305 31.6841 159.422 31.565C159.651 31.2886 159.903 30.9144 160.083 30.5083C160.271 30.0958 160.387 29.6536 160.387 29.2581C160.378 28.8052 160.265 28.4182 159.897 28.01L159.876 27.9845L159.897 28.0079C159.181 27.2233 158.548 26.5259 157.988 25.886C157.006 24.7591 156.25 23.8108 155.715 22.8944C155.185 21.9802 154.875 21.0638 154.879 20.1049C154.879 19.1056 155.202 18.1275 155.76 17.0772C156.324 16.0226 157.128 14.8639 158.176 13.4457C158.678 12.7674 159.234 12.0339 159.848 11.226C160.213 10.7412 160.34 10.2841 160.342 9.80781C160.342 9.38044 160.226 8.9382 160.036 8.53422C159.848 8.12812 159.583 7.76242 159.33 7.50303L159.339 7.51153L159.236 7.40948C158.969 7.15859 158.616 6.91408 158.225 6.73973C157.832 6.56326 157.404 6.45482 156.974 6.45482C156.487 6.45907 155.999 6.58239 155.478 6.92471L154.295 7.8092L154.49 8.07284L154.584 8.43642L155.899 7.5498C156.252 7.31805 156.587 7.20961 156.981 7.20749C157.274 7.20749 157.601 7.28403 157.917 7.42436C158.206 7.55618 158.49 7.74329 158.719 7.95803L158.787 8.02394C158.787 8.02394 158.787 8.02607 158.792 8.02819C159.01 8.25144 159.213 8.55123 159.352 8.85102C159.51 9.18271 159.591 9.51227 159.589 9.80781C159.587 10.1714 159.484 10.4627 159.245 10.7795L159.215 10.8177C158.612 11.6129 158.067 12.3358 157.569 13.0056C156.66 14.2366 155.73 15.5379 155.095 16.7285C154.432 17.9745 154.122 19.0482 154.122 20.1091C154.12 21.1467 154.426 22.1822 155.063 23.275C155.568 24.1425 156.25 25.0419 157.417 26.3814C157.949 26.9895 158.554 27.6592 159.313 28.4884C159.32 28.499 159.328 28.5054 159.335 28.5139C159.546 28.7521 159.625 28.9498 159.632 29.2772C159.632 29.5324 159.548 29.8662 159.397 30.2042C159.268 30.4955 159.074 30.8081 158.862 31.0675C158.764 31.1653 158.67 31.2609 158.578 31.3481C158.338 31.5437 158.056 31.7138 157.782 31.8329C157.464 31.9711 157.154 32.0434 156.885 32.0434C156.553 32.0391 156.301 31.9477 156.021 31.7308L156.014 31.7266C155.55 31.3524 155.129 31.0143 154.736 30.7018L154.261 31.2843L154.266 31.2822ZM139.732 8.40665L140.268 7.86235C139.838 7.56681 139.377 7.25426 138.885 6.92258C138.372 6.58452 137.884 6.45907 137.395 6.45695H137.382C136.572 6.45695 135.748 6.85029 135.214 7.30317C135.101 7.41585 134.989 7.52854 134.883 7.63485C134.656 7.907 134.425 8.26845 134.254 8.66179C134.081 9.05939 133.974 9.48037 133.978 9.87159C133.985 10.3372 134.104 10.7518 134.472 11.1813C134.891 11.6597 135.278 12.1168 135.639 12.557L136.264 12.1296C135.896 11.6746 135.492 11.1983 135.043 10.688C134.827 10.435 134.737 10.2011 134.733 9.86096C134.733 9.60582 134.81 9.28051 134.949 8.95946C135.073 8.67455 135.252 8.37689 135.447 8.13663L135.689 7.89212L135.727 7.85385C136.097 7.55193 136.74 7.20749 137.38 7.20749C137.78 7.20749 138.122 7.31592 138.47 7.54555C138.977 7.88787 139.451 8.21104 139.894 8.51296" fill="white"/>
<path d="M140.827 33.4554C141.105 33.9912 141.423 34.6184 141.806 35.3817C142.366 36.5044 143.068 37.4144 143.897 38.0799C144.75 38.7709 145.736 39.1833 146.745 39.2641H146.764C146.79 39.2705 146.815 39.2705 146.841 39.2705H146.912L147.057 39.2748C147.072 39.2748 147.095 39.2748 147.115 39.2748C147.125 39.2748 147.136 39.2748 147.142 39.2748H147.222C147.288 39.2748 147.356 39.2705 147.42 39.2705H147.457C147.48 39.2705 147.504 39.2705 147.527 39.2663H147.566C148.569 39.177 149.552 38.7666 150.407 38.0777C151.237 37.408 151.942 36.5044 152.509 35.3902C153.217 33.9976 153.768 32.9579 154.243 32.118C155.106 30.5936 155.793 29.6177 156.539 28.8607C157.114 28.2718 157.758 27.77 158.664 27.2172L158.333 26.539C157.377 27.1173 156.654 27.6658 155.998 28.3377C155.188 29.1627 154.465 30.2002 153.586 31.7523C153.071 32.6624 152.5 33.7488 151.838 35.0522C151.314 36.0834 150.67 36.9041 149.935 37.4952C149.199 38.0862 148.361 38.4413 147.497 38.5157L147.459 38.52H147.423C147.326 38.52 147.228 38.5242 147.128 38.5242H147.104H147.08L146.914 38.52H146.843L146.809 38.5157C145.943 38.4456 145.105 38.0905 144.372 37.4973C143.636 36.9062 142.999 36.0812 142.484 35.0479C142.097 34.274 141.744 33.583 141.419 32.9621L140.829 33.4575L140.827 33.4554ZM135.807 27.3745C136.718 27.938 137.357 28.4291 137.904 28.9777C138.501 29.5794 139.052 30.3172 139.681 31.3696L140.277 30.9019C139.647 29.8537 139.078 29.0925 138.441 28.4504C137.832 27.8402 137.139 27.315 136.228 26.7516L135.809 27.3767L135.807 27.3745ZM160.355 13.8478C161.001 14.188 161.719 14.5558 162.519 14.9619C163.599 15.5126 164.452 16.1972 165.048 16.986C165.636 17.76 165.97 18.6466 165.995 19.546L165.987 19.4971L165.997 19.5885C165.997 19.5736 165.997 19.5587 165.997 19.546L166.002 19.5779L165.997 19.833V19.8479C165.957 20.743 165.613 21.619 165.016 22.3844C164.42 23.1498 163.577 23.8132 162.51 24.3426H162.508C161.696 24.7445 160.977 25.1017 160.334 25.4333L160.92 25.9776C161.484 25.6885 162.117 25.3738 162.842 25.0166C164.009 24.4362 164.939 23.7048 165.61 22.8458C166.307 21.9507 166.701 20.9237 166.748 19.884C166.748 19.8734 166.748 19.8606 166.748 19.85L166.752 19.5927C166.752 19.5545 166.752 19.5162 166.746 19.4822C166.705 18.4489 166.327 17.4325 165.649 16.5374C164.982 15.6551 164.043 14.9003 162.861 14.2985C162.113 13.918 161.441 13.5756 160.836 13.2567L160.355 13.8521V13.8478ZM147.211 0.748415H147.305H147.316L147.44 0.752667H147.457C148.335 0.822831 149.193 1.18003 149.939 1.77961C150.689 2.37919 151.335 3.21691 151.842 4.26724C152.443 5.5068 152.958 6.538 153.437 7.40761C154.294 8.95972 155.025 10.0015 155.887 10.8605C156.569 11.5388 157.356 12.1235 158.393 12.7507L158.854 12.1532C157.79 11.5133 157.054 10.9583 156.419 10.329C155.626 9.53804 154.931 8.55574 154.095 7.04616C153.678 6.28924 153.221 5.38986 152.52 3.93981C151.964 2.79167 151.252 1.86891 150.409 1.19491C149.541 0.499652 148.541 0.0871733 147.514 0.00850471C147.502 0.00850471 147.474 0.00425236 147.463 0.00425236L147.339 0H147.226C147.226 0 147.215 0 147.213 0H147.202L146.954 0.00425236L146.82 0.00850471H146.777C146.753 0.00850471 146.738 0.00850471 146.723 0.0106309C145.691 0.102057 144.703 0.518788 143.848 1.2183C143.023 1.89655 142.33 2.81719 141.791 3.95894C141.175 5.26229 140.679 6.24671 140.235 7.05041C139.452 8.46644 138.747 9.46149 137.943 10.2801C137.145 11.0944 136.187 11.8024 134.841 12.5678C134.832 12.5742 134.821 12.5785 134.811 12.5849C133.968 13.0675 132.916 13.6033 131.499 14.2752C130.332 14.8237 129.402 15.5296 128.726 16.3758C128.035 17.2369 127.636 18.2384 127.569 19.2696C127.565 19.3036 127.561 19.3397 127.561 19.3652V19.6097C127.561 19.6097 127.559 19.6544 127.559 19.6586C127.582 20.7302 127.963 21.7891 128.66 22.7203C129.329 23.6155 130.265 24.383 131.441 24.9975L131.567 25.0655C132.258 25.4248 132.876 25.7459 133.432 26.0414L134.049 25.5184C133.385 25.1633 132.636 24.7742 131.79 24.3341C130.71 23.7707 129.857 23.0733 129.26 22.2738C128.666 21.4787 128.328 20.5686 128.309 19.6438V19.6097C128.309 19.5098 128.313 19.4354 128.313 19.3907V19.3652L128.318 19.3418C128.369 18.4531 128.713 17.5877 129.314 16.8415C129.91 16.0909 130.755 15.4531 131.82 14.9513C133.145 14.3241 134.248 13.7713 135.183 13.2376H135.187C136.589 12.436 137.605 11.6961 138.477 10.8052C139.35 9.9165 140.087 8.86404 140.889 7.41398C141.381 6.52524 141.894 5.49405 142.467 4.27787C142.961 3.23179 143.589 2.39833 144.32 1.79875C145.054 1.19704 145.898 0.837714 146.764 0.761172L146.794 0.75692H146.824C146.935 0.754793 147.051 0.750541 147.181 0.748415H147.205M142.8 31.8948C143.172 32.6007 143.572 33.3874 144.015 34.2761C144.442 35.1287 144.94 35.7474 145.443 36.1535C145.945 36.5554 146.446 36.7531 146.931 36.7978H146.948L147.108 36.802C147.185 36.802 147.269 36.7999 147.354 36.7978C147.846 36.751 148.35 36.5533 148.857 36.145C149.368 35.7389 149.873 35.1223 150.302 34.2697C150.972 32.9494 151.553 31.8459 152.088 30.8976C153.005 29.2839 153.811 28.1038 154.767 27.1279C155.429 26.4475 156.156 25.8777 157.005 25.3313L156.646 24.67C155.671 25.2909 154.912 25.9011 154.226 26.6049C153.281 27.568 152.445 28.7417 151.433 30.5277C150.933 31.41 150.36 32.4923 149.631 33.9296C149.278 34.6269 148.849 35.1904 148.387 35.5582C148.03 35.8431 147.679 36.0026 147.316 36.0451C147.245 36.0451 147.177 36.0472 147.113 36.0472H146.974C146.617 36.0068 146.27 35.8474 145.917 35.5646C145.466 35.201 145.041 34.6397 144.69 33.9381C144.181 32.9196 143.779 32.1308 143.427 31.4653L142.8 31.8906V31.8948ZM137.316 25.4057C138.221 25.9776 138.973 26.5517 139.651 27.2363C140.357 27.9422 140.964 28.7459 141.584 29.7474L142.195 29.3051C141.524 28.2293 140.893 27.4171 140.188 26.7069C139.523 26.0372 138.781 25.4482 137.785 24.8125L137.316 25.4057ZM159.109 15.9867C159.789 16.3461 160.543 16.733 161.396 17.1668C162.13 17.5388 162.711 17.9896 163.075 18.4744C163.368 18.8656 163.515 19.2483 163.524 19.6374V19.6672C163.524 19.6799 163.524 19.6927 163.524 19.7033V19.7331C163.502 20.12 163.351 20.49 163.06 20.8663C162.703 21.3256 162.143 21.7572 161.437 22.1144C161.428 22.1186 161.422 22.1208 161.414 22.125C160.417 22.6162 159.583 23.0329 158.85 23.4177L159.173 24.096C159.93 23.6984 160.776 23.2774 161.747 22.799L161.741 22.8033H161.745C162.624 22.3631 163.252 21.8507 163.658 21.3256C164.062 20.8025 164.251 20.2795 164.276 19.7692V19.7947V19.6842V19.6714V19.6268C164.266 19.1037 164.082 18.57 163.676 18.0257C163.271 17.4899 162.63 16.9541 161.738 16.4991C160.898 16.0718 160.141 15.6869 159.457 15.3234L159.109 15.9889V15.9867ZM136.038 14.7365L136.051 14.7259L136.038 14.7323C135.046 15.3021 133.9 15.874 132.553 16.5119C131.681 16.9223 131.061 17.4134 130.657 17.9194C130.257 18.4255 130.066 18.9357 130.037 19.4439C130.037 19.5162 130.032 19.5757 130.032 19.6119V19.6161C130.043 20.1434 130.229 20.692 130.639 21.2448C131.052 21.7976 131.693 22.344 132.583 22.8096C133.588 23.3306 134.46 23.7834 135.232 24.2002L135.649 23.5708C134.875 23.1498 134.005 22.697 132.976 22.1654L132.933 22.1441C132.204 21.7614 131.619 21.2958 131.247 20.7962C130.954 20.3986 130.798 19.9946 130.789 19.5991V19.5566L130.793 19.4588C130.815 19.1101 130.964 18.7486 131.253 18.3851C131.61 17.9364 132.174 17.5218 132.878 17.1923C134.432 16.4545 135.484 15.9187 136.393 15.402C136.399 15.3978 136.408 15.3935 136.414 15.3893C138.048 14.4601 139.232 13.582 140.25 12.5381C141.261 11.5069 142.127 10.2971 143.059 8.61528C143.534 7.7563 144.042 6.74636 144.712 5.33671C145.039 4.64145 145.447 4.08226 145.896 3.71656C146.238 3.43803 146.595 3.27431 146.959 3.23179H147.044L147.213 3.22541H147.245L147.305 3.22967C147.653 3.26156 148.032 3.42527 148.395 3.71869C148.855 4.08651 149.278 4.65208 149.62 5.35372C150.245 6.63793 150.764 7.68401 151.275 8.6089C152.265 10.4034 153.125 11.6047 154.149 12.621C154.916 13.3864 155.799 14.0647 156.986 14.794L157.311 14.1136C156.284 13.48 155.436 12.8442 154.679 12.0895C153.659 11.0774 152.834 9.87397 151.934 8.24532C151.427 7.32894 150.905 6.27648 150.296 5.02629C149.879 4.16731 149.379 3.54221 148.866 3.13399C148.357 2.72576 147.842 2.52377 147.337 2.48125L147.256 2.477H147.198C147.113 2.477 147.012 2.48125 146.905 2.48338C146.413 2.5344 145.911 2.73427 145.415 3.13824C144.913 3.54434 144.427 4.16518 144.027 5.01991C143.442 6.25309 142.916 7.31405 142.396 8.25382C141.55 9.78255 140.718 10.9838 139.709 12.015C138.7 13.0484 137.528 13.8925 136.04 14.7387" fill="white"/>
</svg>
